<mxfile host="Electron" modified="2024-05-27T17:26:25.762Z" agent="Mozilla/5.0 (X11; Linux x86_64) AppleWebKit/537.36 (KHTML, like Gecko) draw.io/24.4.8 Chrome/124.0.6367.207 Electron/30.0.6 Safari/537.36" etag="ZmlSiLUnGNbqa2L2dujS" version="24.4.8" type="device">
  <diagram id="6a731a19-8d31-9384-78a2-239565b7b9f0" name="Page-1">
    <mxGraphModel dx="926" dy="544" grid="1" gridSize="12" guides="1" tooltips="1" connect="1" arrows="1" fold="1" page="1" pageScale="1" pageWidth="1169" pageHeight="827" background="none" math="0" shadow="0">
      <root>
        <mxCell id="0" />
        <mxCell id="1" parent="0" />
        <mxCell id="1746" value="Websocket" style="edgeStyle=orthogonalEdgeStyle;rounded=0;jumpStyle=none;html=1;shadow=0;labelBackgroundColor=default;startArrow=classic;startFill=1;endArrow=classic;endFill=1;jettySize=auto;orthogonalLoop=1;strokeColor=#2F5B7C;strokeWidth=2;fontFamily=Helvetica;fontSize=14;fontColor=#23445D;spacing=5;align=center;verticalAlign=middle;entryX=1;entryY=0.5;entryDx=0;entryDy=0;dashed=1;exitX=0.007;exitY=0.471;exitDx=0;exitDy=0;exitPerimeter=0;" parent="1" source="1749" target="1771" edge="1">
          <mxGeometry x="0.0094" relative="1" as="geometry">
            <mxPoint as="offset" />
            <mxPoint x="793.84" y="350" as="sourcePoint" />
            <mxPoint x="623.84" y="355" as="targetPoint" />
          </mxGeometry>
        </mxCell>
        <mxCell id="1748" value="&lt;div&gt;&lt;span style=&quot;font-weight: normal;&quot;&gt;gRPC&lt;/span&gt;&lt;br&gt;&lt;/div&gt;&lt;div&gt;&lt;span style=&quot;color: rgb(0, 128, 0); font-family: &amp;quot;Droid Sans Mono&amp;quot;, &amp;quot;monospace&amp;quot;, monospace; font-weight: 400; white-space-collapse: preserve;&quot;&gt;&lt;font style=&quot;font-size: 12px;&quot;&gt;chat.proto&lt;/font&gt;&lt;/span&gt;&lt;br&gt;&lt;/div&gt;" style="edgeStyle=isometricEdgeStyle;rounded=1;jumpStyle=none;html=1;shadow=0;labelBackgroundColor=default;startArrow=classic;startFill=1;endArrow=classic;endFill=1;jettySize=auto;orthogonalLoop=1;strokeColor=#12AAB5;strokeWidth=2;fontFamily=Helvetica;fontSize=14;fontColor=#00CCCC;spacing=5;align=center;verticalAlign=middle;exitX=0.5;exitY=1;exitDx=0;exitDy=0;fillColor=#b0e3e6;fontStyle=0;labelBorderColor=none;dashed=1;dashPattern=1 2;entryX=0;entryY=0.5;entryDx=0;entryDy=0;elbow=vertical;" parent="1" source="1771" target="twzLopIO0KbJqL_FZCMa-1793" edge="1">
          <mxGeometry x="-0.0476" y="2" relative="1" as="geometry">
            <mxPoint as="offset" />
            <mxPoint x="475.96" y="382.32" as="sourcePoint" />
            <mxPoint x="706.8399999999999" y="470.32000000000005" as="targetPoint" />
          </mxGeometry>
        </mxCell>
        <mxCell id="1749" value="Streaming" style="rounded=1;whiteSpace=wrap;html=1;shadow=0;labelBackgroundColor=none;strokeColor=none;strokeWidth=3;fillColor=#2F5B7C;fontFamily=Helvetica;fontSize=14;fontColor=#FFFFFF;align=center;fontStyle=1;spacing=5;arcSize=7;perimeterSpacing=2;glass=0;" parent="1" vertex="1">
          <mxGeometry x="755.59" y="324" width="89" height="35" as="geometry" />
        </mxCell>
        <mxCell id="1771" value="Chat" style="rounded=1;whiteSpace=wrap;html=1;shadow=0;labelBackgroundColor=none;strokeColor=none;strokeWidth=3;fillColor=#12aab5;fontFamily=Helvetica;fontSize=14;fontColor=#FFFFFF;align=center;spacing=5;fontStyle=1;arcSize=7;perimeterSpacing=2;" parent="1" vertex="1">
          <mxGeometry x="470" y="322" width="89" height="35" as="geometry" />
        </mxCell>
        <mxCell id="F6hoYCtrTswk0WVgI48D-1780" value="Frontend" style="rounded=1;whiteSpace=wrap;html=1;shadow=0;labelBackgroundColor=none;strokeColor=none;strokeWidth=3;fillColor=#FF8000;fontFamily=Helvetica;fontSize=14;fontColor=#FFFFFF;align=center;spacing=5;fontStyle=1;arcSize=7;perimeterSpacing=2;gradientColor=none;" parent="1" vertex="1">
          <mxGeometry x="696" y="174" width="89" height="35" as="geometry" />
        </mxCell>
        <mxCell id="F6hoYCtrTswk0WVgI48D-1781" value="Manager" style="rounded=1;whiteSpace=wrap;html=1;shadow=0;labelBackgroundColor=none;strokeColor=none;strokeWidth=3;fillColor=#FF8000;fontFamily=Helvetica;fontSize=14;fontColor=#FFFFFF;align=center;spacing=5;fontStyle=1;arcSize=7;perimeterSpacing=2;" parent="1" vertex="1">
          <mxGeometry x="526" y="174" width="89" height="35" as="geometry" />
        </mxCell>
        <mxCell id="F6hoYCtrTswk0WVgI48D-1782" value="" style="rounded=0;html=1;fillColor=#FFB366;strokeColor=none;gradientColor=#D66B00;fontColor=#FFFFFF;fontStyle=1;" parent="1" vertex="1">
          <mxGeometry x="526" y="152" width="89" height="24" as="geometry" />
        </mxCell>
        <mxCell id="ngPTgPMfs_lNQZ_ljn_n-1820" style="edgeStyle=orthogonalEdgeStyle;rounded=0;orthogonalLoop=1;jettySize=auto;html=1;entryX=1;entryY=0.25;entryDx=0;entryDy=0;fillColor=#dae8fc;strokeColor=#6c8ebf;exitX=-0.01;exitY=0.503;exitDx=0;exitDy=0;exitPerimeter=0;" parent="1" source="ngPTgPMfs_lNQZ_ljn_n-1819" target="F6hoYCtrTswk0WVgI48D-1780" edge="1">
          <mxGeometry relative="1" as="geometry" />
        </mxCell>
        <mxCell id="ngPTgPMfs_lNQZ_ljn_n-1819" value="" style="image;aspect=fixed;html=1;points=[];align=center;fontSize=12;image=img/lib/azure2/azure_stack/User_Subscriptions.svg;" parent="1" vertex="1">
          <mxGeometry x="837.48" y="154" width="56.66" height="55" as="geometry" />
        </mxCell>
        <mxCell id="twzLopIO0KbJqL_FZCMa-1779" value="REST" style="edgeStyle=none;rounded=0;jumpStyle=none;html=1;shadow=0;labelBackgroundColor=default;startArrow=classic;startFill=1;endArrow=classic;endFill=1;jettySize=auto;orthogonalLoop=1;strokeColor=#F08705;strokeWidth=1;fontFamily=Helvetica;fontSize=14;fontColor=#FF9933;spacing=5;exitX=1;exitY=0.5;exitDx=0;exitDy=0;entryX=0;entryY=0.5;entryDx=0;entryDy=0;" parent="1" source="F6hoYCtrTswk0WVgI48D-1781" target="F6hoYCtrTswk0WVgI48D-1780" edge="1">
          <mxGeometry relative="1" as="geometry">
            <mxPoint x="529.09" y="184" as="sourcePoint" />
            <mxPoint x="560.09" y="134" as="targetPoint" />
          </mxGeometry>
        </mxCell>
        <mxCell id="1745" value="&lt;div style=&quot;font-size: 14px;&quot;&gt;Websocket&amp;nbsp;&lt;/div&gt;&lt;div style=&quot;font-size: 14px;&quot;&gt;&amp;amp; REST&lt;/div&gt;" style="rounded=0;jumpStyle=none;html=1;shadow=0;labelBackgroundColor=default;startArrow=classic;startFill=1;endArrow=classic;endFill=1;jettySize=auto;orthogonalLoop=1;strokeColor=#2F5B7C;strokeWidth=2;fontFamily=Helvetica;fontSize=14;fontColor=#23445D;spacing=5;exitX=0;exitY=0;exitDx=0;exitDy=0;dashed=1;entryX=0.75;entryY=1;entryDx=0;entryDy=0;edgeStyle=isometricEdgeStyle;elbow=vertical;" parent="1" source="1749" target="F6hoYCtrTswk0WVgI48D-1781" edge="1">
          <mxGeometry x="-0.0048" y="4" relative="1" as="geometry">
            <mxPoint x="582.84" y="226" as="targetPoint" />
            <mxPoint as="offset" />
          </mxGeometry>
        </mxCell>
        <mxCell id="F6hoYCtrTswk0WVgI48D-1785" value="gRPC&lt;div&gt;&lt;span style=&quot;color: rgb(0, 128, 0); font-family: &amp;quot;Droid Sans Mono&amp;quot;, &amp;quot;monospace&amp;quot;, monospace; white-space-collapse: preserve;&quot;&gt;&lt;font style=&quot;font-size: 12px;&quot;&gt;live.proto&lt;/font&gt;&lt;/span&gt;&lt;br&gt;&lt;/div&gt;" style="rounded=1;orthogonalLoop=1;jettySize=auto;html=1;exitX=0.5;exitY=0;exitDx=0;exitDy=0;entryX=0.25;entryY=1;entryDx=0;entryDy=0;endArrow=classic;endFill=1;startArrow=classic;startFill=1;shadow=0;strokeColor=#12AAB5;strokeWidth=2;align=center;verticalAlign=middle;spacing=5;fontFamily=Helvetica;fontSize=14;fontColor=#00CCCC;fontStyle=0;labelBackgroundColor=default;jumpStyle=none;fillColor=#b0e3e6;dashed=1;dashPattern=1 2;" parent="1" source="QVaytBZtxeJtx2ClRTGg-1792" target="F6hoYCtrTswk0WVgI48D-1781" edge="1">
          <mxGeometry x="0.0895" y="-6" relative="1" as="geometry">
            <mxPoint as="offset" />
          </mxGeometry>
        </mxCell>
        <mxCell id="twzLopIO0KbJqL_FZCMa-1789" value="&lt;div style=&quot;font-size: 14px;&quot;&gt;&lt;font style=&quot;font-size: 14px;&quot;&gt;HTTP&lt;/font&gt;&lt;/div&gt;&lt;font style=&quot;font-size: 14px;&quot;&gt;Redirect&lt;/font&gt;" style="edgeStyle=none;rounded=0;jumpStyle=none;html=1;shadow=0;labelBackgroundColor=default;startArrow=classic;startFill=1;endArrow=none;endFill=0;jettySize=auto;orthogonalLoop=1;strokeColor=#2F5B7C;strokeWidth=1;fontFamily=Helvetica;fontSize=14;fontColor=#23445D;spacing=5;dashed=1;entryX=0.75;entryY=1;entryDx=0;entryDy=0;exitX=0.316;exitY=0.064;exitDx=0;exitDy=0;exitPerimeter=0;" parent="1" source="QVaytBZtxeJtx2ClRTGg-1783" target="F6hoYCtrTswk0WVgI48D-1780" edge="1">
          <mxGeometry x="0.0499" y="4" relative="1" as="geometry">
            <mxPoint x="692.84" y="225.5" as="targetPoint" />
            <mxPoint as="offset" />
            <mxPoint x="790" y="320" as="sourcePoint" />
          </mxGeometry>
        </mxCell>
        <mxCell id="twzLopIO0KbJqL_FZCMa-1793" value="Store" style="rounded=1;whiteSpace=wrap;html=1;shadow=0;labelBackgroundColor=none;strokeColor=none;strokeWidth=3;fillColor=#1699d3;fontFamily=Helvetica;fontSize=14;fontColor=#FFFFFF;align=center;spacing=5;fontStyle=1;arcSize=7;perimeterSpacing=2;verticalAlign=middle;gradientColor=none;" parent="1" vertex="1">
          <mxGeometry x="615" y="445" width="89" height="35" as="geometry" />
        </mxCell>
        <mxCell id="twzLopIO0KbJqL_FZCMa-1807" value="REST" style="rounded=0;jumpStyle=none;html=1;shadow=0;labelBackgroundColor=default;startArrow=classic;startFill=1;endArrow=classic;endFill=1;jettySize=auto;orthogonalLoop=1;strokeColor=#2F5B7C;strokeWidth=2;fontFamily=Helvetica;fontSize=14;fontColor=#23445D;spacing=5;exitX=0.5;exitY=1;exitDx=0;exitDy=0;dashed=1;entryX=1;entryY=0.5;entryDx=0;entryDy=0;edgeStyle=isometricEdgeStyle;" parent="1" source="1749" target="twzLopIO0KbJqL_FZCMa-1793" edge="1">
          <mxGeometry x="0.0141" y="4" relative="1" as="geometry">
            <mxPoint x="809.58" y="450" as="targetPoint" />
            <mxPoint y="1" as="offset" />
            <mxPoint x="797.84" y="340" as="sourcePoint" />
          </mxGeometry>
        </mxCell>
        <mxCell id="3Fcv1J6OO3Mn5Sf8UrhP-1775" style="rounded=1;orthogonalLoop=1;jettySize=auto;html=1;shadow=0;strokeColor=#12AAB5;strokeWidth=2;align=center;verticalAlign=middle;spacing=5;fontFamily=Helvetica;fontSize=14;fontColor=#00CCCC;fontStyle=0;labelBackgroundColor=default;jumpStyle=none;startArrow=none;startFill=0;endArrow=none;endFill=0;fillColor=#b0e3e6;entryX=0;entryY=0.25;entryDx=0;entryDy=0;" parent="1" source="23laHXP0hFA1MJsgL0bc-1771" target="1771" edge="1">
          <mxGeometry relative="1" as="geometry">
            <mxPoint x="393.84" y="363" as="targetPoint" />
            <mxPoint x="403.84" y="408" as="sourcePoint" />
          </mxGeometry>
        </mxCell>
        <mxCell id="TplWDzTFWg6EL4Z_GAxd-1773" value="" style="edgeStyle=none;rounded=0;jumpStyle=none;html=1;shadow=0;labelBackgroundColor=none;startArrow=none;startFill=0;endArrow=none;endFill=0;jettySize=auto;orthogonalLoop=1;strokeColor=#F08705;strokeWidth=2;fontFamily=Helvetica;fontSize=14;fontColor=#FFFFFF;spacing=5;exitX=0;exitY=0.25;exitDx=0;exitDy=0;" parent="1" source="F6hoYCtrTswk0WVgI48D-1781" target="TplWDzTFWg6EL4Z_GAxd-1771" edge="1">
          <mxGeometry relative="1" as="geometry">
            <mxPoint x="446.3774999999999" y="170.35000000000002" as="targetPoint" />
            <mxPoint x="500.58" y="201" as="sourcePoint" />
          </mxGeometry>
        </mxCell>
        <mxCell id="TplWDzTFWg6EL4Z_GAxd-1771" value="SQL" style="image;aspect=fixed;html=1;points=[];align=center;fontSize=12;image=img/lib/azure2/databases/Azure_Database_PostgreSQL_Server.svg;" parent="1" vertex="1">
          <mxGeometry x="454" y="152" width="45" height="60" as="geometry" />
        </mxCell>
        <mxCell id="23laHXP0hFA1MJsgL0bc-1771" value="NoSQL" style="shape=image;verticalLabelPosition=bottom;labelBackgroundColor=default;verticalAlign=top;aspect=fixed;imageAspect=0;image=data:image/webp,UklGRmo5AABXRUJQVlA4WAoAAAAIAAAAtwEAJgEAVlA4IIo4AACQ1wCdASq4AScBPm0ylUekIqIhJhOLuIANiWVu/BV4wMQDN4X9gvoj+686muf5jgnKx813pH9Aesn1P/p32AP2F6bX7oepb9zPV4/137Se8n+o+oj/Lv971qXoN+Xd7O37lfuj7RGp6+Qv7l/ev2W98Pd/98/vP7mf4Xs1PPPt3/g+YL135ofyH7c/pf7p+8HxZ/m/+r4H/LjUF/Gv5p/l/zP/vPDSAB/Uf63/0P7962P1H+29B/37/Pf8T3Af1n/4/lleCL+V/6/7LfAD/R/7f/yv9B7Cv/r/qPzf9uP0t/7v9R8B38//tn/a/xPtj////zfAv91f//7rP7R//81dA8VqUzJ83HIprMZGf2PcZnrrjmhlyOV9Pt5Wj5bydp05itSmZPnMfex97pkb+3BuMWimdHDCtUjzz28y/uWWtcd1qCoC25EBx/P6h6gTSsNvv009V8RE9pt83X4oibbTG9QfXt9UenFW393YUHJTyKlMyfO5V+KDC/Dos9r9qM7k6oo5lfuGklu/nUHnR17xpOkEzudzWmjwNREfWP373BslmDWLT3QsHawGzpL+gRn9OsTqrjPKGaG03jLsx91+y33PzYGK4XaUQaUNE+CK7eEX4929yALvhzSiljz/hBZlAMf0xpWXC5e9C5Toa2yxjpfpmzMa3oMjg7Ztr2hD5W8t5KCKB8p5CmkC4AA+TK0x86hlCTG1Lj/rSQahFdmq5zppo3N0fp6s2Uf4SrBQcvl4D1g3bbOM7tX/TbbY8XY3F8Q/Tsb5ODiv+FiJOco9Nqs8seOj/zb7YUQgNlS+g4KWsNA+vpN3vUITFaEQw+6CyWcg/4USD8/KkBHDDhoTuuZP1wz9AJRuc8YfmwBz8e6LQ+oP5p1bvXrOKksmGsFgkjeU/wnFlYEnLrJmEZUvS9T5NBmcqDeWzkGW0jqwODouKTwPE7fLoeg0mdi2wNEFQQ24IdFCD53hBNkb9UrQb9Jl5bUxDad+yrhl6GpL/T/zZatraU2ip7ii339hrHzP0TzpOGxRJJukcfRRBR7WUWhIkTIXy/iXhzO0eMKd5BdSXn55mKbqjOYV0pPSys/8QB948MuKc2xpdo7WQLENWAoGwevrffHH48CFMFphnLiungghca3E9FfXKrOiomtLEAJkIr88/vup78sYaO/r4HkimHjc87iZdG7PavVuCBfO7OZGM58E6K0w07GO+XXu0I5K1XIXEh5Iu88A+RKM9PGK22nbCBArSqqQAiQy0zg+YCATGb9qE7sMflZ6iAv++rcqTc2EZsDEvcF59u+S7RRw7pKRN8ntDCUVidglM/6ezI11+N8qNDVsWQGiDp4nvbIrbnX5YsPc2a6IkUNIyXuvqAFopHD4oEclEVdwCYWPCnrhg2R8GiOy238QKia5hEm9H/2ISSaRChrS6zSIdQTSytd8hpnITWnlkLNQZgnVnzvGcgYXb3wTyvvx0b7Rj7ZMuQ2xVMLu4ddOCdV6sEwv5/YoDtNX5r2hXajnRs1qL2wCPf3GNnaOaGjIhN2yhvdigRuG88qdUy4IAHP8Ae46gzoeUbf9cgIFFy5vp05itB04cMtncz7Ech1sEIhoyGlpnTvnz5rPJlNgA5mAJbQ+/DKS/vxEFeexVsc0xJB7RZFAl+craBenw+R0zscJVRiOCYPFalMyfO5oMsefWl4Xuh8CrPKspsiyon6XPab9oi2/jeBaU04rZZMl8honzus+d4z7miQTZEAXCOL4rTwH6Yhp8tQpQCrhNgDzFalMyfO6zCPgdT2B8+koUkp6mNynwqF47QEd1nzuLqf9iCdz2v1Ve0I9eTQ/w3OaLJFwWuUc3f5rVd8XQXn5cSsdytABstxe8d0a7Z3/Cy2+NE9Spl/bbqS51d/8rSiQsZ3OHwjcM6W7/Ae6P1mXrsiyYL76iWX/nxbQqBd9JmfK5v91cRTB5lAHPkYgkiLdarJHYTr9+xMtjiVfb+kWB0f6mF9DeiU1Vta1lSVDqDesOQY7hGkvDXaeTfBs3IHjCpu9k3mo4erACWFBQCJP+EzS2QL7IQ0GbRGKZFnCRHy91lfUTViA2YArd/RZdHka9hdCdZOEUTXWNNw5155y2kzPF7ZhcZqLpslhe2L6M58nw4pC6+FaU9N7B9zX7o0IEzBVP09V2tmm6MjZYG4GemHuf4bbVeCvisMj1o/0leG0oROeOE7TNLR9VNzvHNwb5lCSmJWNCLueIhZo2n8o1h4/Rn4Se5i4w36VJ9IdW1Q7O5+gZWB09tvqJm+hshhGGVyX4Q8Ol4aEckF8pfGBfEESoIpjAAD+90gHp4uy2XEbwiITo/TzZAdTbyH3Cb+cZBNkFq7PEFZQZEOyTDsS7ao97ZMegAdpnW0Xmj/DtLK9upBno0bpwDDBPZPEujb8iCHx/Wsg5O1E87vB/BIQXuD7IDCW8sdWfWNF9am3eHSjc5VCE1YJf4dPOI+eq/dhnVnGETBB69tnO6t/sk+DHXYJnwCbphToTYiTzd1R6L1vLAAsgbBvtoY7zaSCJ0gogGraCD/F/mZnl3J73+LxAKruTpwm5A/K1dp5IGIkSgBQdnEfmoKazq0CJZZ39+uvbkRt/u01h0Ujcsn3mLK7zYIoor3dWn5dxjm6F0cL5Iwir0lvVbi3uunf4xgX4f9Ycyysf8oor3eK/gfaqC8Tp0HEZQWO9A9nG6OtvI8OJP1eyChcZVAFj1WFtl+Gb3Bglzv9jesg/z24QIQbZhgnYbf5Vbodh4yTZTj9JHhBI8bnN1CYvEnxw/sByrmWb8hgmQUG+sz5se3PaY8OmNE7UiBWsrbW/05OeA0Jrtv4MtG9RGEdgcjVnEG542l6xd4Q8O9QFIHdy/5vDoUnnv2+INCTDyfhe0hh82+uqdRjqC19AMFtxqwXN/5SNwQMisQn8FeaVItJLr3ZYgN2E4LFT+iy25SzdFnmXzU/irP9gRUvXhGiJ4tUpMtRDkmtjDuh68hirhFiThkKBqafKLj26y3BP7BoRQVZzhVBNzdg6GRG97aD2SSDWvWTfuimgiEUW7xmnA/VZQVTPMh9gRcDZr2Qb1OSqa51PF+jQWMIc2pd04JRWqKT9OlMCLi/GTtZQoUgkSp9DzKs4EAxcWuV020FtpdiUM8X5UYE4wofg4F8m1Nlyntn0fJMOf3db7OoZcweMmRKPcUEhRycoz/GW9U9y5skLtYVBRD006kee24DtGTQGJvK0YUNoIGotjFfUpVjkGlNoFMMT85OH+gS1dBVpfvclQFSyawk/83zzKBkQqfBkMgsQ8tn7/dadBGQ5ea7O67HCWXpwbeSDh+RClwhfDABkVFGPyUqEhPSP6TjJiu3SMyBOCV2inrU68FkGARglMTKF/hjEVAu8gxGh4ezBmLUgM7vs3wjW2nGTf6zdvgw9/tWM79HH3TgP+zzCxZu/mofkKUK4/YCR1r+Y1FJBx7ADHDEzzCecY/TJtjya+Jg2vOPpmChel7pz+Wb6qcXExPCrls9uYT+OUPHgswT6bdIKZe8TrZQMTcuRIa/D08NAl9aXVRQlqRW9rbFacZGQmL5VhrWgKP4ADF2JPz+EH1/Qi366fN0kO/yvWUrpKJ/st4ZDN10EDu7IrJ251MwXi4Idq2mUUWIrOPNRzg44ZpBp4ioHcUYu43hx9XEToWnILUWdIva7l0RUVQv0K8chc1T+aMJGb9dSgOarTEtDyGuhxn+SNRubFb1MmbGUpuCPfdAuJ3d6G0P/EcW4LReQusMyR2EX9yxVB8m8vokU1eEQ4BVFrh1XkUUYUIzHIKFJ8rBoQEloNqS3e7TQXMxsJHBvyP9AxDzE5zT44+TUN8dO83am6P/9DXA5uowowA1nNVPWuieR5MAKP4C+eVOw0dxvPo/79gbugFx3hmNefVcWPZ+jEoHswpQghmQlVIOxOAzW3vC0BpafrflbWj6oe7R9C2AIzcQkPdJJLsnZZGzHjga1Fz3plinDSqf/RMzjNHuwF5GVJEimIEfA0Ip8uA0OFRbdd8BrLzyepseiiCVJCHAhzX4ksulAmL9CMFDBYo5mEyyEPdt6vF/r+nq/tKX8F1Ukj8Q1k2fdWdjhBtohNXnLwmWUvgQfROFi478nQdt/FUUXpTdGhYvYmnRwDE4BHOy8L532BLNW5iDJR70h0KdfXSGc/3kdW8aPZf6dbqVU9MQ5gPw53MOSRuBfHhjP+6xUmmmWjdnrXtBq+bf70EKPcifousK+rtZBu9BdwqOrdJriXgcLdYdaCBUKG/9o4qt23ua6pnHhZUFKLQKfngt89z3VYF0Mdn0CiIgl6SpkTAxZnyIoxgcAeFsrFlAfDTjkOLQagXk4cDHKHFXTw37+vNeYic47/kQ0p1T3UeYNVaKePWlUeh59EpeA4BmYqhOzroXLEojWB5QLlzB9HMN0sDn6C5QkNkwq8VXXiJfhRRoxF5wh87ieuSi89ulzHmRyQmsnsTRWwqHnfzalll9MOCsEoSjMhzPPp+nm+M2Pvjr6Izx+/JysZeQjiWrwYECBQgkwDQqiu93dPZdScHVKfEmiyIm31blvhSwNrLxCGI/+JNnaTvAovDXmeHJ0GMpROnKodUcPtS3J07nDCe7CJgbxSJo5b3EX309VQVaFoCo8/jLPV0qlXR60oaH0BvUCGpNlmtW/FuSd1YMXJVy8gS0JvvpSqZhONpKQJzaN6WTqWuZAxotV5h7I0OVMnsAQDdMH0OS4wIZrrUKLnWTb0tPcMNiCn+PiKsDAD+YiYTiinEeUnOe0wa2YxwVk9tyCI0ZeRggHVF3dURTgKVx5J654kyHtTlMl1kmypPkPI/kW0BCJtekkcYre7BTKW+KYoYU7it7oLvV70MaB5k8IRdxKYN/rxIH4DOU4FO+guSxoewG6DvfN4nLSX+cx9xnK0xGP/9We+gB6yQa/VUvcB7Zbiw23vSDU6I7CBvykx8rXDATAVTohb6FeJErWe5w3DzbOZMc62DfW5xXu+u3lfcUfyCsUg4GAJQYVHqBpzfxjZFdGZrsCCvZSVd8QPVQsj0EN4fDvkXFIqEQ4hegQkifVFgDXsLyCt2x0Zlaox2fvimzEICTkn8K8VXlxpvBpjZDQlkq3OxKmziXXTJJEvYfOq3pgxrv9Muj9CrLgLOWptNhoQ88apJkRbWsuwi4mOgK8nWtAP9rMmKv5s8SKTXBE7QKxKj5Ov8u3KZYGsm4pqYJO5Ng2cROAdCOEu/EBy/tXScn4CIz9mo0d16ZHXVD8LnNd6KTv1Sqwd5LrL//+SlH+XyIY5S+Jy+hg0snxWpd03QNHJAWo5MJZraT4Haf017LzcYnUwmN6wQe3yvStWahdjM5zsEiox2Az6QaU50HVPmdsaaOsvSGwONpOAUXjENcDAcWmy/fUbZapd1QhR1SMzoA9Q/f/Q7/HlR+C/Zj/Kg4oem+GAEQQlhkfkdBzZEO6Lxs3hqOc6cbp05YPLuIoktAWU3q1uakqGglHqhhxqA2HJD+Fs+iRPV4hB4R9WKVjD5Rjk/VAthYvXvsrcIb0VDH7LJyJxdN41Y1wwSd9mQDn/9sUAiaMjJx0WuBXyiND/GgLRyaOvHkOAWm+YN0T7Y+RL3X+xnxpyN6nD8k18rH08xnuBBqiGxUrgR5EJo8ebh/MbFDAOKSlIJNT0oJX/C7J2AvTUG2VFjC/df8wGAdxvKEgwGqGZpyU0f1x7ZpCk7A04xik+mYSoWO/tlE+XkIi/FVJV8/yUIBYY02wrsVecxzlaZDkUcwl8LcE/bpYMvnAHUrqXZrrHS7xNZZOKYAE+zp3JIrRYSJr1n/imEXPzsrSNp0F17+fUJZTL7AwMJPdpHyncn6ZeNZWlld3ExXSIDJgm0zlJ/gTtFTX18/9dZGvjHj1zCaNsj/FH//9IAHN0yMkvtF4TvGPLvvFOzEEgWPJ809xfi2x2/Fwcedo4iV6RAP4VnjuUHNCPqiTvxQRf4qqMhtub54Oy7zIiyzJVkXSPP1R3iQkJSYPkwd/Kped9rjkYEQMw+VmCilym4wd3z8p/MnFKlpl0JNKadixzhowP4aKljN1eRIGF+ZWDWBkD79ss6XUDQIaifuoeLP115rJdubZe0+KsiTNYuSbLa3HtifhjKAf9/mkT2hR46/NVMPyshLk+rQMpMr1NtsJanJ6/b7WDibUoe4NMrK4mLhyq3ERxYV6byikLptBzjShwYPHdnff89juq1sAAauo61tLKpP4fhQRT3OE9LA81U/V54UmuI9LjxsDReSJQmTtOLzKBvUUlgIACjsI9Jv+skmGtkdAlpLkdFUzZe7g+s5jHRE+tBMroliFwSoBFeV5T4CXa27ke4zMmFk1YeqBIeCXsG0WrUiGlBTuNkbBF6PRSQYsRCSgdw50D2XY7CmV16wsEdLfSjNiOAcotR9d2trVOyZTGKM9FMmSB3pp+GDepoUBcEl4U9Fk2Ge4njZqu+0eYitfeXXYIwHSs5FzIPKfhztf7PPIr60kvsux+vwTfQN6OQtgMxtQ1W357nJR1rDHXRNbYXjVa0HjLMJf6mH0wsWCmOz8KwHiP8ZWC+6wcYCILeUrdMd1WF3yTf13KzCmyTtMYjCK7w4iy++h2KmHNp/K1OlHYsL9aTCjMds+EWK7fBCcHYu/KPeRn/ycBJIiqcsG438Xb0hnx7rNG/89sY6iCTqi9xltg3k1dIPVZxG3KOI6r/f9Bh02xKzjQ0lRgLNLkUzlR9mM1zwJUvCiCRTo++WaFfWmbil6xP9ygSzluddeA6S5iAeYQs+aCd5sL4fxBdPhKVr4AoQO27C4qqW/gCsMrgfJpjxo+3ceRNBlwthm5bONiOLA4+3zKXotm2fo3XvL/nE1OMzY00AEjzDA6VTitWiqKxkiHWqaHeo7GGZ/UttRCbFHwLbfP/51Xk66Ui+Py2gVpJMojskMx9xaYhn1EjYZRTTEW95zalFZcyMhmuDfSqoiCJVsr+Qm6efYv+wdv4wVHymm6ldVbSz7KaHCBXEwX78iZTdY4+kG013nCbsbtkiLU0xGgAU1OqL5blhEfsMBkqbzF/KOHG9EGwhvvZLUyl1OidbFhVoU+FQ5p2gn8xt1FIBmDY5KqUHAQqsHSz+NkUqbiEjfABIrNRr+ifBChwzges072Xe5+GjVjV2GxaW/egTky9tRL4fDuOylZRKCZkAPAXrjZ4BPD3nIJ29ayN52YwnIW5zizuv0Ev9wAg3deuiw7uCTXXwyHGlmT6RVJRokh2N75Vsu1/l5gpK2hsA80rwTtaaBjML38P5C8ol/b/u8DckzsOdN7YrymqGhTxZDst6cWwUNDCQXZ3NCWBoHMiwEJ0QNUpYAr+2ZJeHoxKw1FuJW3+f7RJqRRYVTF1CmVA5nVikgPZ0e33zjARjVVVYJnP/iMJOTOtPLJGD9ttg50vzBsDubQdaQ+fPxmzmJ5gufkUe/1BjxXtRlRPe4hXRQAaldwfzPPYVbAkVQu5uhZ5496iovz3BX/9oltHicRWa3dPgrWDqTT6XQnjo9OzHpv9aMM0Ql8+MS0J9a+50IHduadOdVsJqiQc/FgPHkVu9Q4WUHJAcKfpOe+uDkgu0VrSe28Ah9d+wbz0oOZQjL1CpbSV2YUcO8Lz+maAOFP4fRwY1Ah1SSBqkXZU4+M++sguU5pdfzoe5QAEwy5pfJtgCiNf0hncEagjSRJvAhS6aPepB6ucVV8TQTemTPvEaJxUIzP9C4vmQXwYEyDhbxIinXXLqVM1cV4zN4fCBncZfXy04zcvj/QCZ7XffbuOt6Bbs/wLemurkxHmkwXRm74XCOaOu36wuwutCqNK4KjeV8YDZiKpdjmUX9K4PWlmfJti0GHDckhWsa4ecJ6pr7wqZahdKbp1i7mX2A4ukjD624X4/BYjnWqHjcONvU00PWCc7egzaCAMeu0EVPsXG5HSqJG+8vN3yjdELnmec1AGg5Cdf6NBf9aFBt+52BBeVZnezXla7K9lpCehzB9e0weU1TurP8O7xx2Ap1LLETuqgMSitfNvkeIsBblEGnMGHZ78btpe/JYjjxb/mJ45IhNK0xtCfqndOiznuJSK+LpdZxLHnUDeO7ygEyJ/espDhjJOlcv9MOb5vIF9qSfbd8QHXVOwLbYnP3uJtNi1RFDBKTqQoxcI+7OXdoY/RTsov6Xdjz3PIiOVWF2p0obw5YMRJ5mdP7roSLxUURK5zzs1txQXjxgYN/ftAoYPwDvh8A/lYV1Guy6Wf6M949WqoYmn3rz5u/iKMFa8GBNAr/B9cC3lEPJm4bxCL5LoTqm9Qg1cBHvU2K7okYwaplIDP52do45Obu0t5TuYREO25RZ7yoOOgD3ykaN6WPJzyhVSMtMocyylZwhGX1ULHmOKz1F6wvtxCjhDtJLZXP0vaWSrtPJbCWt3U3t+lvE9CSkTh0TDzWOQW4hiNW65/InChtz43RECMX4kAHVio2txP2FqR6OYyialehCQL4Le0n3AD3k6LOsitlhvA7S3ta5uDJHaO6EdOjeTOBu5qqzTvu/kgsShn87mZjKDirBEuGM7wwHqSnqtUs8cS2wyDRehVEhRKG1xpQvrxCuzHscGRmIT+12Qqi6ZyHIs9m8hwmUF3oJzb7TfAQECOVz7DWSX57Vy8kR79VQgY6lXVY+y6EoTI8HTLgCSwNNpgStZvGsJ9EUifvo870uzejyokiDNap+3cK1PCl9IxtoQFc4sBbDoRneHEFbzJRUTaaePmoQp5u5xuws/msG3rHv1pgjgVyz0Aku0zEUNvn3q4WDgr8E3zLfm0smwCtMkW0FqFFhQj6+maTrfuqFdtC6e+cNWqTJodnHtN5JCKZQ2FMXfJL7OHlHk5J9t9w1RPrafFzbpfUo2fdvYZ3vfHC60a3UAyJzc5velw7aVAt40wX/vRt1x1G5AVseGVtFN0bi332FxIqSQzvte7yTXU+kvlNIERdlIi3YAY/PwDTiieY5TffxjUArSQ7QdfksoUcp6tW8H5V4e5vhk+GtoOWjs0aQTYn0rfll8+BGWvBtm/xnPVKf/YruyV7CIsumTA2fkA6rizLV45/Lj5oSWLYYl3Yhcsb72u92DhrC6omv+mfnUMkuB1+jvovx5lav4VYiWsFBvmTOzrzR5h1GgLY8OfsKC8UEZQCi2+kNGye+ijpyWZREAFQol2kjw/wL+wufFOlYuWcBBsABub5SoKV9vyks9202DQo8lzYwrg1HJpKD63xwy2IZ34XoO4KUl7QF3ewss2LG1hpgUKTTQDDDRdfj5hAJr82eP9GCbpNSzojkLg8gxRY49dT5DwCX8yaZDrYkWWGOLt3xRuN0ApgnaMKvYhGjxMvzBNkygsQMuEIaYx+50xQMOrPejdzOR06YJqqlXXViMqeahXpNOogjlnbIEKFmNQFJlZwzkuaknrG+uKszpafut90ipM5yeYmqwKutmUKPOIK5sWz//+m2rX5KGhkWo9+44Z0DIvV64YOB7xGTWxZlNRxnZavHcBDID48oOAgLj480wwP9iA1YiSesFk3WxPNanMqqoJyN3nRx6m18FAHlmLB9ncFUicEDhwTWqEeIUJob3FauM7F0joaQ5LWjTRrOpaZ9N3TokQzchBK4qs08edYzPsXWfNUH0dT4gFp2ZwWiBaCWnIXIpl8TxFObREZWWRGbmrzuRkPflPJGCYfG6xJ93iF83VoVrDiHnOob3NL5d+A7JeCRgVNis5utfbaRqgY1yyZ7dNxb318KbMpm57+cXON3Y+/U7rZBD/pHB/2ZHtLFv6ES8nSQHOZNkjxPExS3WC7/y9cfGvo9fKX6mP6HHqpx8eu3o9QvVtBmYmwbZArV5SOdHBjI9E9whiio5OzOtmVcnWJFCIxGk4GYv6xHM580dsOi/ioaGOmZWBAfcqAg8DAqw2xKoL0p4QBqGZC0yGJj1x5+IEZe7/n/F4Jh1V6U7qwJCCLDUwkgAKRg0RBaneq+hi1xlbXPIMKHzPYs+fPcL+9PvblJRlm/oqqEAfhJ4xTStntqWH2ZYkjPsStPtJfE51AbnaEdT9URQKH9owWNoOjIMz7Gyf46P5F44BvQnSW+ZMnB1RkKJBl3IUXRfmQejq5f5dDf5sI9RXemOeueM4JkBe8x7kmbP/G1AVZvCjzFzwrRXK86KueBM4VwqR3v/ppjAU4DNq5r37K+HR9YUxgbo48Z4/XRU9TietJqP7XIED5P6QQLi4/bY47zmmH7CbbBlhbJhxW3RzQosEMqDdAeYR6/fKr69lgPjyPzFXhrAXyY6+VHJL2/dJvO0attwUd6hZLkm1xhi4/1qXgH1sA8h8dgF0xb2puR9UsknEb19iBL7f27hQv6S24uelBigA8XIEdFJ9tkXU/HxUKAg3i2HUveOI1fECr227rW09iO6crxpOq7CUnbWS2UUouUO5+HsTWdpCVFCnuV4xctqXFWcFDnykEAtfKUsZrvrTbGFf2xBoGVjJaMeMM5//T9U6GFGj++zb7GVP8U2xu94ZeQZw+AewdcXOZTAYxWleXauBdyicoh09A1O/QKfQ64HCGGVCbUtklZKiiC/lQ8bSU7JhYnbYJ905mIKfwzHR3/wk5HHOALoY0nT0uCsi0vH0M9UZFhhU3X5AI4+EtMiRlJreuF7zar5HvyfL3WX756yQ/dcQPNSOjuK3J/Ew4hh7CR2ydS/RF/OJNVu2XWLZlnJvFP1PODFwiIigAkZINPVzl0A+imNnkd7TmbFZZigmDV3miKiweS95NachpRcnrgtqdY7DMAVI1x8oC+O62t2qjvDls2ogZ+aFJ7Qe7jDZq+zs0yvTT/9CiUyQz32LgtqrEnlnANJE+dVaVTCQR/bpKJ5CvRD5s0HmsK60qM/9sAW5rD/0ghnoIjWSFWj+3U2HqSDiG2wI6/kwtNfdpCM4iQPNNi4INO90aXfhcaVALvqGQ1enggL89Hqxbr3gwl/ivAi2IL56ghgVhZY62xEHalasPfL+g+Qc+a16l0niFEEI4Kgo48MytdtPPFc0o0dghE5gPnksVcxu8iMdYHchE5tA13hBL/nC5/Aof21EnJ5CJdTUUMlVdjalsieBqvlw2DQZ2mXS7wvix8j0ccGHZ7M93cRqSiNkM+nJjGPXEo5MgEDGhW1G1f7rWW6O3ZLxQ+uE12N61+utIebEO5YFSWBz/6NRwoQsB8yGivUq6JQaN5lEUkTq8QgeN/Xjvxey+afS16rVntLW8nT5y7li+kPYaFJXe5FMcbQUZHHLGk4HX2vefWlUs1XhaLqVf1QdbkHkYGcaw/QR81d9DI35NX5uBMPNC9joOOEu2JdcLb+domwEa79AneLtZMu0reYRFODlg86jA47Vj2Wmfiul8XULLbe80jrnb7JaYj/TncrSQK4m7L667iT28Dnbj4JnSFA7rxTBK7Jw3Ck+HlgUn5tlLW8rQt2TU8WIMSxO1Jvz5BFDxIpDYtbMDnPMOeTeYsPiJAvxbULQ56UxUFD6RpY++FGS8h4aE2Rwsz99qCYwmGyYi3EYnqJ5ppXD+AkwH+kKFqzi28NfgmWeVs3H1E192iIDCKyfDBLuD7KU6l5AaB383xLMU/hlwiDVVZOAK7mIYRPRIrcr1++tz34zHWdfXOwo7UoqKpUTmNeH/nJVP+xK6KHyXQgPrxhtfzOBpE4xsBbEtcm4T9qZYQbbEvs2SpybhFnnRDrXwJt+T0mbMA62bQZi6IsIX3Bue6PLR3mgBOm+8EeaKqq+QbLE8YLwbvC9bXAXm4o2tZY7BLCg4BuPkzSiGHr09bYfcF0wb4nC828heASHdKHUUexCkSOU4cDbcc33kOxBPs1rXwsSvTmxNJZQM1SI0BWdETI+MwumQbIfWdF8lDyg7hb0fO+eIPsp59FRaMPvBuHkOPoujOtU3bN5z14Hr0SActEb4XLgnMyAOCQAm8yjGykhPvS1RSKT0yNgu7jTS4yBfytLsTPvRE2v6kT3n+wJd5f1N8QUYcZKYeJ3WAbIgr1HvIu2BRq+hatWGWcQ+i15hP53HgAMCpOmbIN0Z8zZWqC/9tTK0bNHzX/vbzt5ZpMuITiwNY/NPsnx2dbHguULuiuOiJPjBxVOYpBcnHDSek5XP3MmHSvb9H0WBs+R9/oPE+hviwFv/OJa9d+1sZJMToW4RHIPLbmeJOPud55IldiHhx7nLa5I1dLF6f0qDrjwZpp64mgfThnswPD/f70lb6uoRgL1fw1h6avnK9mYaZp3Xc1ShrN5HwJqeubqReJyxDi2fA60gEUez0TuVyTnrAmJMtxIZ88IM3fAT9biHhEYf5Az/znBOyiO0nRQ/OFmwo5IGLzpHE1hjCXk2/XwgaNjGm2QSqqVLUSLk+CeEDBn7kciyaQnLUQ6h6pRd0Q1wb0ZPxQExOiBKcVzM/3pLjogT9Q0zd91Vk/thWcyo+FZ1YuOEKi2IUCZUyH5pLobN63XKFAy7Evc6RzR7NytCnlergGJK3oWZTtr3eAjxt9KEr1FcccQuShkH7T7uJaCUTSzix6BPbqL9SLZcEZtWJsYGmTkGfa3XCtaF+LXKIneyCGGFkX2a9c3kGbuZrWDhxByEQ/dQ1kCRE0AJiS0TD9QCAWsDIuUvzgOViujDJQzAJ7f1f4Em+oG5oHX30K03PxxUgElKkSoQkw5XeKl61daMZePMabcvNWcqsa/LLkWfrNuvvtko8rTg2uYSLlJqndGT/Aeg183GGWExBQQn2mBh6XuKN0h1Fb2mSeUsIYw0OWKL7aytEViYq6w3TC+laDAEJiDPZqyCnL+s7SnJO+oY2TpOM459hwutKKyKwxKZIOy/3t5TtIJOe+w5fTZfqKyYYBOQjf0XG3cJD3As2HrUPVA7PRxvfEVIzXa0YKPZslsdK5HrmqZ+ZrBfSf+lyOGlCrCzxrdMHKB9cxIzRulda1dskrFUwHC38AoMntDqlWPRhPwdSqBA8iEi3IWLcJJDRT/j3iKKRtw0tCQhRm8EYRuVf8CN7UUbPMgIB0bP5+za0RYQLA4xT7Zvc91yaha7a8kVzJywWeztUS8RV+rFiBLeBAWbOqtFd6B58Vj9ykEOSAOKhgEhc0ijSzM9FxpYgmGrOWpwNDlSDAUKnohi2hYGCc0xX2gc8Y4AwRVjhzK/VjSoGaJWH0xKWGnD+5wwa1ks7DY4T5pZS3j+tI3dyg4s+oomBBWfoFXd8sIJlji2doU7NMff0KCRY72KkhBbJTA1oxMlLhUwgPfswAxCTr+OT9bLLI+++T/pTC0O1eYYPMEY2QNoPpiQnfZFSZzzPGnR6cKqVLF1Kk0XofWF+FqTVOzBuibrohdRwHI/1nIAXI40jdNfBLbM1kH0K2/HCh0G+GCHI9hs/vUqKhg711d64R1wu1zcQ/z/vFsyTUMg4sqIeXRuz+SWJZpxUGHpEZfzOrf1qJG2oGgquB9rm7unlbuwNuERAQc/fRuEquD9MjtB6cb+MBQUDpDTHN2RB41Bw78GQXn4z5YosxBhgHrHU+qb95lmragszzmjx64H/kd7YX3POxQdkpMsKmCrfXjMvR4x/XQfXpsnFdtcXDQr9eSzpW2fOZHTPJaorCPnUUWuuhvL3phA7dPhVq9A2vYRQTxfJlLKdgPsYdobTDl7FNsFrF2bj9KvX7BDB7Up6Wczd6pRDAGDzKR8Cb8vbsKDcdBph5TaMyg+39TXBjcziFOU+nr7HsTQAoo1GEc9DIsocL+HHrjmQpvSMYozcO/S+DspUVexeUFqFqD26YkVMNhQ3Cc2laoS90d+tVjhz0kiReYGiKw8ovnEtwEW+r7B8lvIy9GsWsWy8tNPh2FgNzmaNggdY3i106Rwv2gC9WgZzVGzHf6jtlrrqrJ4vjnx5BwUNGLfiTqjY8sof8IzgN/w11q6a5yy8AFt0sBHnPflvJPoK01JJvOrGFVtEwcN04e6rTvvgHg9er81n2LUWITaD4HpsJaO33hwg2IDDxP2qChF+kWNBGou19Ay/FJ40pA+qwEKhPeuZguNTtMHFMXQP1+CohVTkVB7izugqJL92SE2PLuPZiKySMQzTAnCJiEf36BHcbELZAOxpRkAjr8cwbBWzUPGngGet4qw+ExaRtkY+dRaGg78s3+fojpB8BZb7kN8zTE4LcsiTcWX+L1qo9+ycVIEC8I53ihXuE6Sf72alyvVWnA+7zmTCfHwA82YjyINKLXOGkXlC2LoDjvUUuC3yEKUzGD2LBLptLph7R4idsaezSsdyAFvE/j6OsPJQ1ixPfLk1JvJMBYw8FxlXvY5p50MyvsR1KL9MyWDStWMurgIVNtNl9OH7kD3dPTXVh6aD1LS839d/MUtydw3x6xvYxb7PsRZdtf1hsw7bT2PrEX1wIFYtoJi8bgumc+qN7lNGgtdD1jPDhqyTdXVt060VOgkVVuW1/D4Q+9zh+QdCsfno0e2nMcOuUeB/7NBKTQEY+PtzL7GGeoNfleGddGcEWhanrf0WWjhKDLfz6RizzpqQlHU1wH6dnB01YeTaYxkUUFbnVxOcFF/7BwTzuQqog6ipFBh6GvR672vUCZzQUZbWhBlsEnArwbN9FCCMmcRGWurT1khU9Z003l0lvYdLvtekZCFJcWUCAttX+2DQ4RZcCVfuIWivviDJcQzGeZUTnN6DPtsTob883VzYKtRnVuZlu1LuT7Y6orYOgyC1DGK13rpptNcrQitR8T5v1uOVgu7mno5huIdtA1Slfb48+Jv5g2NapDb3ehRzgvDLaKdmVfu4zLxetDuE2eIzxQqfDgQYaTzq8OGzt5ciDKocAqZ183Ti+Rz5pr1d/zpZD27NQ/Nt37qggprzRl9fm2U8nrI9FdBpXdqNJ4z4+x0dBn62MYvy7DrB5/oT+35k1UN7nWI4ZPrjJObSY2ZYKkNxn7Vgi20QhGB0nYzEEoRgSJAAk78x41Cid7vGRAyqy4WOsWmVGlakiY2GPEh3JKitCVsvUuC8E4Ht43bgOaEZr+GT9FPAniIODnr/M8BOjlqcjGmXS9Nt8ggalXjRY8xrc4Pl/Y8U6Npy61TLEmyqfwH456JtTlamSDzVu/g76rPbjD+jX/sU7xU1uYiDBROEmEr6I2liIcFqYTilgGhewn6zsWJKYGym148CZrWRf51/mHiNFCkzxVEqrByp3AlbkLg+7KqJdvydkIcrjoR5qGao878Vjeskx7bzYZWzY/1D2WoslNIGy/qBoXTuSYWoatQHkcu5+6yp4WDAeYRJ7LeiVhySF9f28TsSM7+kV02qvvv2WDABdlXOB5vsBhQI9IB7L/X7iYD0vaToHPHiUUlmk5VcxGizlyYdhDcFxzGpE9F5ZUWdqAyrHfpdhkEp6Ms4Rsj5oqPAgE/fclhbvkk8cbEapIyLgWn2Eslk8A3yMS87GNpjMEEfhKvALplxfOGTwv98Q4/sBqYC3Pfq3iP6kHJm7Ad8PkgnRkvwnCtUXRz2CBmWUsUIakcaCkXfyPb59CrMi558VQi/TZr0uw1cFC2KrNdCTNRq7OyMPu8v9lzJA3BXYEiBZwki9TEjleVx7/n47FzFWqVIwmX9nzR24KJ4i9H5GYJyRmK1affpbTprf+W9+2aub4eq8aU363sYr+W9bT0lMAoAVbLed/OCkgJSjW4M3v2diGPOWHcPhPPx5eUeR19p8kLs8xEQUVvCEWFJBz4O1h8bijFPFh3r7C3u0qrsdgDBqNTwRJsw6hbJYIJezXImPMenkMvc3ZmMm+VI+IvXisJXqXkQ8XTzENet+0zOgTaSzPTEXG4ajDkceGkJRbr1HQODhtr/9NvGMla2HUesimSzrxBayOtgT8Sc6dEGch6O7DvitId4C9t/NUNMP+ktJoCp/K688IVW4KefdHN5b0AWvR7ZRnvfsVSvIrqkUdF6X75sJn2wR14vbADpjTVFkxzWxoAXZzYbV52ZrxS2jr0levAnGV6HiqdlHhxar8avg2kipIqCBOFVnr//X/zn88rcfkxC6k0bvnC6Zg3/Rk9fQwULa6/Pit6acNOH471U4QY5rCLQVq9PyjHb7c36L7UhLqSKZqrE5d+/0KoDieBhK7EVZ62aJw6yGcBHWBqV0sUvxH1NMBTH5/NnRaMVnxu624evynZ6Fp74xK/4sIV8I5zIfYNmQaO02OfpzEzfp818oRR9+ddssKWv/TU1MBRjppfyszorTss7IuSrrMdJeVlY9qY/qBzZyP+IrqMlbnc1CRYai6TruPOWCnw0DYO8Y0LcmEmTSeF76WYt4uC10IdhBMXaUjsA/sHnps6jE+VO7m77R42bSL0ZrRAyywi41/mAvFd/FM2H08gd27KfcDuLal3ljJCpk4pYpUeexd+cz9d+6Uz8j74Mg4BoLNDhnQquBoLnjrQnxzvMy1C4Xdrcn64OoLxAOrBIu6Hd78C1locfONnliXrPSF22zFFKgmxNRv6Dn0GtoERdU7E0rHmQpdjxycL5bnLdDGQq2Z+pDe7LHp/avGbPAH5yC7IpLvZz17BzEO7G1ARjKI1foB8lNF0kq6IHwQm/2NwZShq20Mt0HbbFF42IYbzKM5zMhcSyEduB2tEZGI1E8GJzbVePJdO2O13Y1Z8bNir431/0K82TRz/Et7eaCfQAJrqKddsE+5c+E+p3qM2h8eGfhO+TcNQobJKBi2RtSpCC3o3RqP2F7W3ZF9i+Knw9OjK5ZcpPbsF9asxwPBlrrlLSpPUJ8FknfhizV9dq5EViYIJ9UIaK29ewERoiTAt6jF+Vt5Ecw7ORhqPI6eW37gGhpaH3Q3GyoOEW0dh4SUcScbf07BMxXajgwhJzCt6Me0qbJpy8fzJ0+e0LtEqX3GnHw+bKNXHLLv98gLg3LVGd4mfvLJJP7WcmFPw/dT6jEZglRDfEguKctgJ0IEp2RLR4n6Ae+0LaLN14tdB53sIZm+1vTxwUakgjQBEIjpaojG+OX9r1ybV5y1gPoBec9OU7c67dfAdhDwMxIrjSW6Yu49Sq+fjnwXrmZa4T5hKisTWd6gyaqIN9PQOCtmxiVqbaN8pREJvWMuJ0fwX2sTZ2jwXDV7LLAefocZIiuiCiHqv0WA3kZ3el1oiIi7O8ng+7QPWxDh0ecwSIlaT8CJyrzI5vrDSJOJXIRzaTfdKE+5scYAERr9na0z2MIXDQwzcZJVuYHon03kf4B5jc4uegeebyVlmmJEybCK3WApnr7dxRk3S+oEqcTaAUdJ8zJn8/AVTFyLcYAxwa3od1Y38PO0HO22D9WApAPraQJnr4DbHzHMFaEd0MxFiSQiRIYNYLYdjGkD17iOara0PZ0M7t4H9s9ewcjbb9r1fPZg0eGLIKWd654y3z08MNzPk4+8t8zdIyefj+u++B+SlmYRBQnZzaUVZEmHGvdART3krjN0CuhhtLurRnXAB/eEzRKpiXYrltrg/clTCqcsCS29fPo4fBg78h2EaUdtP5Xr8ULQWRpR0CXc1WMdsWQGrBLBCWDbGNvcron6Es4DL1TZ9kyFk1PgsjrRthK7i8xWiKcuV6Cf8hPhSv3N60KlxTG8vKNkUmxtZOT6yPywvL0FRe0qmltxagNHNzDkZDsaLY+KzkdXfFMAG2SYfLARcU17c+I6ArcbeYXJoD+q285RDxmoAkVNz3NahdGPmIhPRq02O6xzDrZ0i0KrD+61EumBFHXpFvAkSVUyhHJrDJWxDba/ETaEtnmdIhgBDwAGH+yX3sBqxyYmGDiCR43OHT6+KAYNrwacvk3OClaLiH20A2IrGqC7E71its16lNqFzlkvIkgmfS8sZJJEl1aksgo+HAg0DcaMRmQ4+dB+vYvH/8Lw4J/2zxPFWLGLKuOk99C5WHhPLLtR5G41IVw1OooxMR8TwBU0EMInXy0DuBaLZy+PxiYvmzC2avOPCnbU0ozs3s/MODZTTIfVyE0JqQAoJUtICNhnbn16PbzcacRwykj8QoUONCMpbpprDiNVnorAO7xiyuLh/Joz9UxMF4g0AyoSPKOEoytorNwnAx5226b11zk0wn33kWnCK8ru4oqNW+1xeuPObgm74vhAcy1KIVtuqNtCE2itlx6kjARUxUwlYIUsnfEQuKXoFjC8t4hXJ0Z7yXeUyd/Sae60LwQiB6QJcMGQo0tAILYg6h/puzQHM0ApQOcpdM5sBJ2qChOK85A0nZqsM5+tACpIVOy7Mvz9V/Z1KKn4EVjhSz07ly5XAGM3OVPSLf4UfWOtJPmnDtKwGm8hSxs4YyJO9o0rNPiDwrX2++C+ta3sUB7GcPfFi1ehY7N2Z1Z7m5cKamLv2WVcCl6weNwoS/rwTEncRaY/vCyT+eCqmJeI2HntLeST0s3nJAXwjVwd/oBFoVa1kKGYwC5wR4nvyPDMjlOo29tBIHWYwmAeSEFgVXyxT1QX5DdTCiIemHGR3LU0t30Qh6PyyLBnj4hYdE+50Nete18f/p52qSfiq/qlZJMFsZ9aiuTYPhUcHt6Wvuzo8LXMmmMLV91dW1v2Q2GkF/rpl31qiLHVEFZ7rFd6TCknFOy/AuvgaHdft4baFjiISeFlHg+EKn1XN81Vz1e4xp4wQKSS6Qq+Nepsta9lQRJ9zslbFtxvmwKXpxIGWOQc9gjLw+vwnQLvSxVTCuyaWKGNvTBUygp9YF0OTR92t34gntGGRllmfRUXcPg3EwwYURnpIsYDDNXQEoBdQGCez0ru+4wwjQY8/8dsX0kEQpI+i2TVkL4EQwg7le8N2LhU8pfs64QunFqkVqfWZI8hB6lal7ljviiRx9DpYwC9qAtV/8aJPk2ZeOdsLTmoHMZraqiN3AbARoqZU614JDiR1syOzgdtZdIzGMS+Pb+fOlGRDy02CfFjyzBD3QqX/YnNNXLLJ+MDVe8aSCWRqTjrfHbqOnd/9zyS9DTDp/h6w5fZWTIlx6FN9wQ1BJUjrg++29wzX5ic2cnndkK7IoJHpogbVZcNT6E1TrSwh3aSHvo0TyZ+QPTngnaPSonqJyBH7vKqOQg5k8ghhEpvwgCbj06Kv5enpPK1jov6JreBvJz1bzVR45g/oBaFBGhJzRjRBix5vw4+4au6xXD/B1Q262aKcPYwq3PeOmd8fjALT3I46KCO+dJ2hYUburwSlqFIesr/FS/mslFmR9TkNtkF0ViELYZknVq8ptdWEtJz0hngOJmkvMdTl8HNEf6tVSR2Spz/nPv68yrJkoZKYGmF4OsSyOjV5yTv8blO1z3GQW24zfeC7qPfDSdqnLSyysm/fRUUUfWeN3yt09iLLvyQToekq+kzqkrVuyUMOCqCRgAAAAAAAEVYSUa6AAAARXhpZgAASUkqAAgAAAAGABIBAwABAAAAAQAAABoBBQABAAAAVgAAABsBBQABAAAAXgAAACgBAwABAAAAAgAAABMCAwABAAAAAQAAAGmHBAABAAAAZgAAAAAAAABIAAAAAQAAAEgAAAABAAAABgAAkAcABAAAADAyMTABkQcABAAAAAECAwAAoAcABAAAADAxMDABoAMAAQAAAP//AAACoAQAAQAAALgBAAADoAQAAQAAACcBAAAAAAAA;" parent="1" vertex="1">
          <mxGeometry x="358.47" y="302" width="68.61" height="46" as="geometry" />
        </mxCell>
        <mxCell id="P-ZrlMQtJNmtfWvuK3_7-1780" style="edgeStyle=none;rounded=0;jumpStyle=none;orthogonalLoop=1;jettySize=auto;html=1;entryX=0.487;entryY=-0.025;entryDx=0;entryDy=0;entryPerimeter=0;shadow=0;strokeColor=#2F5B7C;strokeWidth=2;align=center;verticalAlign=middle;spacing=5;fontFamily=Helvetica;fontSize=16;fontColor=#23445D;labelBackgroundColor=none;startArrow=none;startFill=0;endArrow=none;endFill=0;" parent="1" source="twzLopIO0KbJqL_FZCMa-1793" target="P-ZrlMQtJNmtfWvuK3_7-1778" edge="1">
          <mxGeometry relative="1" as="geometry" />
        </mxCell>
        <mxCell id="CY5TgLIo43DXt26SsKV_-1772" value="REST" style="rounded=0;jumpStyle=none;html=1;shadow=0;labelBackgroundColor=default;startArrow=classic;startFill=1;endArrow=none;endFill=0;jettySize=auto;orthogonalLoop=1;strokeColor=#2F5B7C;strokeWidth=1;fontFamily=Helvetica;fontSize=14;fontColor=#23445D;spacing=5;dashed=1;dashPattern=12 12;entryX=0.185;entryY=0.97;entryDx=0;entryDy=0;opacity=70;entryPerimeter=0;edgeStyle=orthogonalEdgeStyle;" parent="1" source="QVaytBZtxeJtx2ClRTGg-1784" target="F6hoYCtrTswk0WVgI48D-1780" edge="1">
          <mxGeometry x="-0.5205" relative="1" as="geometry">
            <mxPoint x="719.5565000000001" y="225.50399999999996" as="targetPoint" />
            <mxPoint as="offset" />
            <mxPoint x="641.58" y="446" as="sourcePoint" />
            <Array as="points">
              <mxPoint x="660" y="384" />
              <mxPoint x="711" y="384" />
            </Array>
          </mxGeometry>
        </mxCell>
        <mxCell id="mswuVBb3DqYW5r0FFCF4-1781" value="" style="image;aspect=fixed;html=1;points=[];align=center;fontSize=12;image=img/lib/azure2/identity/Users.svg;fontFamily=Helvetica;fontColor=#23445D;labelBackgroundColor=none;" parent="1" vertex="1">
          <mxGeometry x="878" y="300" width="32" height="35" as="geometry" />
        </mxCell>
        <mxCell id="mswuVBb3DqYW5r0FFCF4-1782" value="" style="image;aspect=fixed;html=1;points=[];align=center;fontSize=12;image=img/lib/azure2/identity/Users.svg;fontFamily=Helvetica;fontColor=#23445D;labelBackgroundColor=none;" parent="1" vertex="1">
          <mxGeometry x="888" y="310" width="32" height="35" as="geometry" />
        </mxCell>
        <mxCell id="mswuVBb3DqYW5r0FFCF4-1783" value="" style="image;aspect=fixed;html=1;points=[];align=center;fontSize=12;image=img/lib/azure2/identity/Users.svg;fontFamily=Helvetica;fontColor=#23445D;labelBackgroundColor=none;" parent="1" vertex="1">
          <mxGeometry x="898" y="320" width="32" height="35" as="geometry" />
        </mxCell>
        <mxCell id="mswuVBb3DqYW5r0FFCF4-1784" style="edgeStyle=none;rounded=0;jumpStyle=none;orthogonalLoop=1;jettySize=auto;html=1;entryX=0.014;entryY=0.632;entryDx=0;entryDy=0;entryPerimeter=0;shadow=0;strokeColor=#2F5B7C;strokeWidth=1;align=center;verticalAlign=middle;spacing=5;fontFamily=Helvetica;fontSize=16;fontColor=#23445D;labelBackgroundColor=none;startArrow=classic;startFill=1;endArrow=none;endFill=0;exitX=1;exitY=0.25;exitDx=0;exitDy=0;" parent="1" source="1749" target="mswuVBb3DqYW5r0FFCF4-1782" edge="1">
          <mxGeometry relative="1" as="geometry" />
        </mxCell>
        <mxCell id="QVaytBZtxeJtx2ClRTGg-1778" value="" style="shape=image;verticalLabelPosition=bottom;labelBackgroundColor=default;verticalAlign=top;aspect=fixed;imageAspect=0;image=data:image/svg+xml,PHN2ZyB4bWxucz0iaHR0cDovL3d3dy53My5vcmcvMjAwMC9zdmciIHZpZXdCb3g9IjAgMCA1MTIgNzYuNjA4Ij4mI3hhOyAgPHBhdGggZD0iTTEzNi41ODEgNy42MTJjNy44MSAwIDEzLjkwNyAyLjQ2NCAxOC4yOTMgNy4zOTEgNC4zODYgNC45MjggNi41NzggMTEuNzMgNi41NzggMjAuNDA4IDAgNi45MTgtMS40IDEyLjY3LTQuMjAyIDE3LjI1NWEyMC45NTcgMjAuOTU3IDAgMCAxLTExLjg2MyA5LjMxbDEyLjk0IDEzLjM3OGgtOS4xNzhsLTEwLjU5Ny0xMi4xOTUtMi4wNDcuMDc2Yy04LjAxMiAwLTE0LjE5MS0yLjQzMy0xOC41MzctNy4zLTQuMzQ1LTQuODY2LTYuNTItMTEuNzMzLTYuNTI2LTIwLjYgMC04Ljc5NSAyLjE4Mi0xNS42MTIgNi41NDYtMjAuNDUyIDQuMzY1LTQuODQgMTAuNTYyLTcuMjYzIDE4LjU5My03LjI3MXpNNTEwLjYyNiAxMC42bC0xLjk2NyA1LjQ2OGMtNC40OTMtMS44Ny04Ljg1Ny0yLjgwNC0xMy4wOTMtMi44MDQtMy4zNDYgMC01Ljk2MS43MTQtNy44NDQgMi4xNDMtMS44ODMgMS40MjktMi44MjYgMy40MTItMi44MjggNS45NSAwIDEuODY5LjM0NyAzLjQwMiAxLjA0MSA0LjU5OS42OTUgMS4xOTYgMS44NjYgMi4yOTIgMy41MTQgMy4yODkgMS42NS45OTYgNC4xNzMgMi4wOTkgNy41NjggMy4zMDkgNS43MDUgMi4wMTkgOS42MjggNC4xODYgMTEuNzcgNi41MDIgMi4xNDIgMi4zMTYgMy4yMTMgNS4zMzYgMy4yMTMgOS4wNjIgMCA0Ljc1NC0xLjczNiA4LjQ2MS01LjIwOCAxMS4xMjItMy40NzIgMi42Ni04LjE4NCAzLjk5NS0xNC4xMzQgNC4wMDYtNi40NDUgMC0xMS40MDMtLjgyNS0xNC44NzUtMi40NzZ2LTYuMDc0YTM5LjE5IDM5LjE5IDAgMCAwIDcuMjkgMi4yMTZjMi41Ny41MzQgNS4xODYuODAyIDcuODEuODAxIDQuMjE0IDAgNy4zODctLjgwMSA5LjUxOC0yLjQwNCAyLjEzMS0xLjYwMiAzLjItMy44MTIgMy4yMDUtNi42MyAwLTEuODctLjM3OC0zLjQwMy0xLjEzNC00LjYtLjc1Ni0xLjE5Ni0yLjAxOS0yLjI5OS0zLjc5LTMuMzA4LTEuNzc2LTEuMDEtNC40NzItMi4xNTYtOC4wODgtMy40MzgtNS4wNTktMS43OTQtOC42NzMtMy45MzEtMTAuODQxLTYuNDEtMi4xNjktMi40NzgtMy4yNTMtNS42OTMtMy4yNTMtOS42NDMgMC00LjE2IDEuNTc0LTcuNDc0IDQuNzIzLTkuOTQgMy4xNDktMi40NjQgNy4zMTMtMy42OTUgMTIuNDkyLTMuNjkzYTM3LjA3OCAzNy4wNzggMCAwIDEgMTQuOTEgMi45NTN6bS0zMjIuMTQtMi4xMjh2MzUuMjU1YzAgNC41MDkgMS4yNCA3Ljk2OSAzLjcxOCAxMC4zOCAyLjQ3OSAyLjQxMiA2LjEyMyAzLjYxNCAxMC45MzMgMy42MDYgNC41ODQgMCA4LjExNi0xLjIxMiAxMC41OTctMy42MzggMi40ODEtMi40MjUgMy43Mi01Ljg5NCAzLjcxOC0xMC40MDhWOC40NzNoNi4zMjJ2MzQuOTU1YzAgNi4xNTYtMS44NyAxMC45OTctNS42MSAxNC41MjMtMy43MzggMy41MjUtOC44ODggNS4yODYtMTUuNDQ3IDUuMjg0LTYuNTQ2IDAtMTEuNjEtMS43NzUtMTUuMTkyLTUuMzI1LTMuNTgyLTMuNTUtNS4zNjgtOC40My01LjM2LTE0LjY0MlY4LjQ3M3ptMjM0LjAxNCAwdjM1LjI1NWMwIDQuNTA5IDEuMjQgNy45NjkgMy43MTggMTAuMzggMi40NzkgMi40MTIgNi4xMjMgMy42MTQgMTAuOTMzIDMuNjA2IDQuNTg2IDAgOC4xMi0xLjIxMiAxMC42LTMuNjM4IDIuNDgyLTIuNDI1IDMuNzIxLTUuOTA1IDMuNzE4LTEwLjQ0VjguNDczaDYuMzIydjM0Ljk1NWMwIDYuMTU2LTEuODcgMTAuOTk3LTUuNjA4IDE0LjUyMy0zLjc0IDMuNTI1LTguODg0IDUuMjg2LTE1LjQzMyA1LjI4NC02LjU0MyAwLTExLjYwNy0xLjc3NS0xNS4xOTEtNS4zMjUtMy41ODUtMy41NS01LjM3OC04LjQzLTUuMzgtMTQuNjQyVjguNDczem0tMTU1Ljg2LS4yMiAyMS4zODIgNTQuMjQ1aC02LjU0MmwtNi43Ny0xNy4xODdoLTIxLjc5bC02LjY5NSAxNy4xODdoLTYuNDFsMjEuNTEtNTQuMjQ1em01Mi45MTEuMjJjNi42NzcgMCAxMS42MDQgMS4yNjkgMTQuNzggMy44MDYgMy4xNzUgMi41MzcgNC43NjggNi4zNTUgNC43NzkgMTEuNDU0IDAgNy4xNDItMy42NDUgMTEuOTctMTAuOTMzIDE0LjQ4N2wxNC43NTkgMjQuMjc4aC03LjQ3MkwzMjIuMyA0MC4wMzVsLTExLjMzOC0uMDA0djIyLjQ2N2gtNi4zMjZWOC40NzN6bTc5Ljc1Ny0uMDA4LTIxLjg2NiAyMy40NzMgMjIuNjgzIDMwLjU2aC03LjQ0bC0xOS44MTgtMjYuMjAxLTUuNjkgNS4wMjR2MjEuMTc3aC02LjMyMVY4LjQ3M2g2LjMyMnYyNi43ODJsMjQuNjU0LTI2Ljc5ek0xMzYuNTggMTMuMjQxYy02LjAyNSAwLTEwLjYwNSAxLjg5LTEzLjc0MSA1LjY3My0zLjEzNiAzLjc4MS00LjcwMyA5LjI4LTQuNzAzIDE2LjQ5N2gtLjAwOGMwIDcuMzE2IDEuNTY3IDEyLjg2NCA0LjcwMyAxNi42NDZzNy42OSA1LjY3MiAxMy42NjUgNS42N2M2LjAyNiAwIDEwLjU3NS0xLjg4NSAxMy42NS01LjY1NCAzLjA3NC0zLjc2OCA0LjYxLTkuMzIyIDQuNjEtMTYuNjYyIDAtNy4yNjctMS41My0xMi43NzgtNC41OTQtMTYuNTM0LTMuMDY0LTMuNzU1LTcuNTktNS42MzQtMTMuNTgyLTUuNjM2em0xMjcuMzAzIDEuODgzYTY5LjEyOSA2OS4xMjkgMCAwIDEtMi4zNDMgNy43OTZsLTYuNDEgMTYuNzM4IDE3LjYwNy4wMDQtNi4zMjItMTYuNzQyYy0uODItMi4xMTUtMS42NjQtNC43MTQtMi41MzItNy43OTZ6bTU1LjI5NS0xLjE0NmgtOC4yMTd2MjAuNjU2aDguNjYxYzQuNDYzIDAgNy43MzctLjg4MSA5LjgyLTIuNjQ0IDIuMDgzLTEuNzYzIDMuMTIzLTQuNDA0IDMuMTItNy45MjQgMC0zLjU3MS0xLjA1OC02LjE0NS0zLjE3Ni03LjcyLTIuMTE4LTEuNTc2LTUuNTIxLTIuMzY1LTEwLjIwOC0yLjM2OHoiIGZpbGw9IiMwOTEzMTMiLz4mI3hhOyAgPHBhdGggZD0iTTYzLjkgMGM3LjAwNy4wMjQgMTIuNjggNS43IDEyLjcgMTIuNzA4VjYzLjljLS4wMiA3LjAxLTUuNjk4IDEyLjY4OC0xMi43MDggMTIuNzA4SDU2LjI4bC0zLjQ5LTguNDc0SDYzLjlhNC4yOSA0LjI5IDAgMCAwIDQuMjM0LTQuMjM0VjEyLjcwOEE0LjI5IDQuMjkgMCAwIDAgNjMuOSA4LjQ3M0gxMi43MDhhNC4yOSA0LjI5IDAgMCAwLTQuMjM1IDQuMjM1VjYzLjlhNC4yOSA0LjI5IDAgMCAwIDQuMjM1IDQuMjM0SDMxLjQ0bDYuODYzLTE0LjUxIDkuNDYzIDIyLjk4NGgtMzUuMDZDNS42OTggNzYuNTg4LjAyIDcwLjkxIDAgNjMuOVYxMi43MDhDLjAyIDUuNjk4IDUuNjk4LjAyIDEyLjcwOCAwek01MC43NCA0MS44MXYxMy42MTdMMzguOTQ0IDQ4LjYyek0yNS44NjcgMjguMTkxdjEzLjYxN0wxNC4wNzQgMzV6bTI0LjIzLTE0LjczMXYxMy42MTdsLTExLjc5NC02LjgxeiIgZmlsbD0iIzQ2OTVlYiIvPiYjeGE7ICA8cGF0aCBkPSJtMjUuODY4IDQxLjgxIDExLjc5NSA2LjgxLTExLjc5NSA2LjgwN3pNNTAuNzQgMjguMTkxbDExLjc5NSA2LjgwNy0xMS43OTUgNi44MXpNMjYuNTEgMTMuNDYxbDExLjc5NSA2LjgwNy0xMS43OTUgNi44MXoiIGZpbGw9IiNmZjAwNGEiLz4mI3hhOyAgPHBhdGggZD0ibTI1Ljg2OCAyOC4xOTIgMTEuNzk1IDYuODA3VjQ4LjYybC0xMS43OTUtNi44MXptMjQuODcxIDB2MTMuNjE3TDM4Ljk0NSA0OC42MlYzNC45OTl6bS0xMi40MzUtNy45MjQgMTEuNzk0IDYuODEtMTEuNzk0IDYuODExLTExLjc5NS02LjgxeiIgZmlsbD0iIzA5MTMxMyIvPiYjeGE7PC9zdmc+;" parent="1" vertex="1">
          <mxGeometry x="530" y="159" width="80" height="12.03" as="geometry" />
        </mxCell>
        <mxCell id="QVaytBZtxeJtx2ClRTGg-1780" value="" style="rounded=0;html=1;fillColor=#FFB366;strokeColor=none;gradientColor=#D66B00;fontColor=#FFFFFF;fontStyle=1;" parent="1" vertex="1">
          <mxGeometry x="696" y="152" width="89" height="24" as="geometry" />
        </mxCell>
        <mxCell id="QVaytBZtxeJtx2ClRTGg-1781" value="" style="shape=image;verticalLabelPosition=bottom;labelBackgroundColor=default;verticalAlign=top;aspect=fixed;imageAspect=0;image=data:image/svg+xml,PHN2ZyB4bWxucz0iaHR0cDovL3d3dy53My5vcmcvMjAwMC9zdmciIGZpbGwtcnVsZT0iZXZlbm9kZCIgaGVpZ2h0PSI2MCIgd2lkdGg9IjEyMCIgdmlld0JveD0iMCAwIDEyMCA2MCI+PGcgZmlsbD0ibm9uZSIgdHJhbnNmb3JtPSJtYXRyaXgoLjA2OTI4IDAgMCAuMDY5MjggNy4zNjczOTggMTMuNTA1MzMxKSI+PGNpcmNsZSBmaWxsPSIjMDBkOGZmIiBjeD0iMjY5LjUyOSIgY3k9IjIzNy42MjgiIHI9IjUwLjE2NyIvPjxnIHN0cm9rZS13aWR0aD0iMjQiIHN0cm9rZT0iIzAwZDhmZiI+PHBhdGggZD0iTTI2OS41MyAxMzUuNjI4YzY3LjM1NiAwIDEyOS45MjggOS42NjUgMTc3LjEwNyAyNS45MDcgNTYuODQ0IDE5LjU3IDkxLjc5NCA0OS4yMzMgOTEuNzk0IDc2LjA5MyAwIDI3Ljk5LTM3LjA0IDU5LjUwMy05OC4wODMgNzkuNzI4LTQ2LjE1IDE1LjI5LTEwNi44OCAyMy4yNzItMTcwLjgxOCAyMy4yNzItNjUuNTU0IDAtMTI3LjYzLTcuNDkyLTE3NC4zLTIzLjQ0LTU5LjA0Ni0yMC4xODItOTQuNjEtNTIuMTAzLTk0LjYxLTc5LjU2IDAtMjYuNjQyIDMzLjM3LTU2LjA3NiA4OS40MTUtNzUuNjE2IDQ3LjM1NS0xNi41MSAxMTEuNDcyLTI2LjM4NCAxNzkuNDg2LTI2LjM4NHoiLz48cGF0aCBkPSJNMTgwLjczNiAxODYuOTIyYzMzLjY1LTU4LjM0OCA3My4yOC0xMDcuNzI0IDExMC45Mi0xNDAuNDhDMzM3LjAwNiA2Ljk3NiAzODAuMTYzLTguNDggNDAzLjQzIDQuOTM3YzI0LjI0OCAxMy45ODMgMzMuMDQyIDYxLjgxNCAyMC4wNjcgMTI0Ljc5Ni05LjggNDcuNjE4LTMzLjIzNCAxMDQuMjEyLTY1LjE3NiAxNTkuNi0zMi43NSA1Ni43ODgtNzAuMjUgMTA2LjgyLTEwNy4zNzcgMTM5LjI3Mi00Ni45OCA0MS4wNjgtOTIuNCA1NS45My0xMTYuMTg1IDQyLjIxMy0yMy4wOC0xMy4zLTMxLjkwNi01Ni45Mi0yMC44MzQtMTE1LjIzMyA5LjM1NS00OS4yNyAzMi44MzItMTA5Ljc0NSA2Ni44LTE2OC42NjR6Ii8+PHBhdGggZD0iTTE4MC44MiAyODkuNDgyQzE0Ny4wNzUgMjMxLjIgMTI0LjEgMTcyLjE5NSAxMTQuNTEgMTIzLjIyN2MtMTEuNTQ0LTU5LTMuMzgyLTEwNC4xMSAxOS44NjQtMTE3LjU2NiAyNC4yMjQtMTQuMDI0IDcwLjA1NSAyLjI0NCAxMTguMTQgNDQuOTQgMzYuMzU2IDMyLjI4IDczLjY4OCA4MC44MzcgMTA1LjcyMyAxMzYuMTczIDMyLjg0NCA1Ni43MzMgNTcuNDYgMTE0LjIxIDY3LjAzNiAxNjIuNTgyIDEyLjExNyA2MS4yMTMgMi4zMSAxMDcuOTg0LTIxLjQ1MyAxMjEuNzQtMjMuMDU3IDEzLjM0OC02NS4yNS0uNzg0LTExMC4yNC0zOS41LTM4LjAxMy0zMi43MS03OC42ODItODMuMjUzLTExMi43Ni0xNDIuMTE1eiIvPjwvZz48L2c+PHBhdGggZmlsbD0iIzAwZDhmZiIgZD0iTTY0LjYyIDM4Ljg0OGwtNC4yNi02LjQzNmMyLjE1My0uMTkgNC4wOTMtMS43NSA0LjA5My00LjYgMC0yLjktMi4wNTgtNC43NTYtNC45NDUtNC43NTZoLTYuMzR2MTUuNzhoMS45NjR2LTYuMjdoMy4xNDdsNC4wMjIgNi4yN3ptLTUuMzQ3LTcuOTk3aC00LjE0di02LjAzM2g0LjE0YzEuODcgMCAzLjE0NyAxLjIzIDMuMTQ3IDMuMDA1cy0xLjI3OCAzLjAzLTMuMTQ3IDMuMDN6bTEyLjY1OCA4LjI4YzEuODcgMCAzLjQwNy0uNjE1IDQuNTQzLTEuNzVsLS44NTItMS4xNmMtLjkuOTIzLTIuMjI0IDEuNDQzLTMuNTI1IDEuNDQzLTIuNDYgMC0zLjk3NS0xLjc5OC00LjExNy0zLjk1aDkuMjV2LS40NWMwLTMuNDMtMi4wMzUtNi4xMjgtNS40OS02LjEyOC0zLjI2NSAwLTUuNjMgMi42NzQtNS42MyA1Ljk4NiAwIDMuNTczIDIuNDM3IDYgNS44MiA2em0zLjU1LTYuNzJoLTcuNWMuMDk1LTEuNzUgMS4zLTMuODEgMy43MzgtMy44MSAyLjYwMyAwIDMuNzM4IDIuMTA2IDMuNzYyIDMuODF6bTEzLjUzNCA2LjQzNnYtNy44NTVjMC0yLjc2OC0yLjAxLTMuODU3LTQuNDI0LTMuODU3LTEuODcgMC0zLjMzNi42MTUtNC41NjYgMS44OTNsLjgyOCAxLjIzYzEuMDE3LTEuMDg4IDIuMTMtMS41ODUgMy41MDItMS41ODUgMS42NTYgMCAyLjg4Ny44NzUgMi44ODcgMi40MTN2Mi4wNThjLS45MjMtMS4wNjUtMi4yMjQtMS41NjItMy43ODYtMS41NjItMS45NCAwLTQgMS4yMDctNCAzLjc2MiAwIDIuNDg0IDIuMDU4IDMuNzg2IDQgMy43ODYgMS41MzggMCAyLjg0LS41NDQgMy43ODYtMS41ODV2MS4zem0tNC45Mi0uOTk0Yy0xLjY1NiAwLTIuODE2LTEuMDQtMi44MTYtMi40ODQgMC0xLjQ2NyAxLjE2LTIuNTA4IDIuODE2LTIuNTA4IDEuMjU0IDAgMi40Ni40NzMgMy4xNDcgMS40MnYyLjE1M2MtLjY4Ni45NDYtMS44OTMgMS40Mi0zLjE0NyAxLjQyem0xMy41IDEuMjc4YzIuMDgyIDAgMy4zMTItLjg1MiA0LjE4OC0xLjk4N2wtMS4xODMtMS4wODhjLS43NTcgMS4wMTctMS43MjcgMS40OS0yLjkgMS40OS0yLjQzNyAwLTMuOTUtMS44OTMtMy45NS00LjQyNHMxLjUxNC00LjQgMy45NS00LjRjMS4xODMgMCAyLjE1My40NSAyLjkgMS40OWwxLjE4My0xLjA4OGMtLjg3NS0xLjEzNi0yLjEwNi0xLjk4Ny00LjE4OC0xLjk4Ny0zLjQwNyAwLTUuNzAyIDIuNjAzLTUuNzAyIDUuOTg2IDAgMy40MDcgMi4yOTUgNiA1LjcwMiA2em05LjU2IDBjMS4wNCAwIDEuNjgtLjMwOCAyLjEzLS43MzNsLS41Mi0xLjMyNWMtLjIzNy4yNi0uNy40NzMtMS4yMDcuNDczLS43OCAwLTEuMTYtLjYxNS0xLjE2LTEuNDY3di03LjA5OGgyLjMyVjI3LjQyaC0yLjMydi0zLjEyM2gtMS43NzV2My4xMjNoLTEuODkzdjEuNTYyaDEuODkzdjcuNDc3YzAgMS43MDQuODUyIDIuNjc0IDIuNTMyIDIuNjc0eiIvPjwvc3ZnPg==;imageBackground=none;" parent="1" vertex="1">
          <mxGeometry x="707.26" y="147.38" width="66.48" height="33.24" as="geometry" />
        </mxCell>
        <mxCell id="QVaytBZtxeJtx2ClRTGg-1782" value="" style="rounded=0;html=1;fillColor=#3F7AA6;strokeColor=none;gradientColor=#214057;fontColor=#FFFFFF;fontStyle=1;fillStyle=auto;" parent="1" vertex="1">
          <mxGeometry x="755.59" y="302" width="89" height="24" as="geometry" />
        </mxCell>
        <mxCell id="QVaytBZtxeJtx2ClRTGg-1783" value="" style="shape=image;verticalLabelPosition=bottom;labelBackgroundColor=default;verticalAlign=top;aspect=fixed;imageAspect=0;image=data:image/svg+xml,PHN2ZyB4bWxucz0iaHR0cDovL3d3dy53My5vcmcvMjAwMC9zdmciIGZpbGwtcnVsZT0iZXZlbm9kZCIgaGVpZ2h0PSI2MCIgd2lkdGg9IjEyMCIgdmlld0JveD0iMCAwIDEyMCA2MCI+PGcgZmlsbD0ibm9uZSIgdHJhbnNmb3JtPSJtYXRyaXgoLjA2OTI4IDAgMCAuMDY5MjggNy4zNjczOTggMTMuNTA1MzMxKSI+PGNpcmNsZSBmaWxsPSIjMDBkOGZmIiBjeD0iMjY5LjUyOSIgY3k9IjIzNy42MjgiIHI9IjUwLjE2NyIvPjxnIHN0cm9rZS13aWR0aD0iMjQiIHN0cm9rZT0iIzAwZDhmZiI+PHBhdGggZD0iTTI2OS41MyAxMzUuNjI4YzY3LjM1NiAwIDEyOS45MjggOS42NjUgMTc3LjEwNyAyNS45MDcgNTYuODQ0IDE5LjU3IDkxLjc5NCA0OS4yMzMgOTEuNzk0IDc2LjA5MyAwIDI3Ljk5LTM3LjA0IDU5LjUwMy05OC4wODMgNzkuNzI4LTQ2LjE1IDE1LjI5LTEwNi44OCAyMy4yNzItMTcwLjgxOCAyMy4yNzItNjUuNTU0IDAtMTI3LjYzLTcuNDkyLTE3NC4zLTIzLjQ0LTU5LjA0Ni0yMC4xODItOTQuNjEtNTIuMTAzLTk0LjYxLTc5LjU2IDAtMjYuNjQyIDMzLjM3LTU2LjA3NiA4OS40MTUtNzUuNjE2IDQ3LjM1NS0xNi41MSAxMTEuNDcyLTI2LjM4NCAxNzkuNDg2LTI2LjM4NHoiLz48cGF0aCBkPSJNMTgwLjczNiAxODYuOTIyYzMzLjY1LTU4LjM0OCA3My4yOC0xMDcuNzI0IDExMC45Mi0xNDAuNDhDMzM3LjAwNiA2Ljk3NiAzODAuMTYzLTguNDggNDAzLjQzIDQuOTM3YzI0LjI0OCAxMy45ODMgMzMuMDQyIDYxLjgxNCAyMC4wNjcgMTI0Ljc5Ni05LjggNDcuNjE4LTMzLjIzNCAxMDQuMjEyLTY1LjE3NiAxNTkuNi0zMi43NSA1Ni43ODgtNzAuMjUgMTA2LjgyLTEwNy4zNzcgMTM5LjI3Mi00Ni45OCA0MS4wNjgtOTIuNCA1NS45My0xMTYuMTg1IDQyLjIxMy0yMy4wOC0xMy4zLTMxLjkwNi01Ni45Mi0yMC44MzQtMTE1LjIzMyA5LjM1NS00OS4yNyAzMi44MzItMTA5Ljc0NSA2Ni44LTE2OC42NjR6Ii8+PHBhdGggZD0iTTE4MC44MiAyODkuNDgyQzE0Ny4wNzUgMjMxLjIgMTI0LjEgMTcyLjE5NSAxMTQuNTEgMTIzLjIyN2MtMTEuNTQ0LTU5LTMuMzgyLTEwNC4xMSAxOS44NjQtMTE3LjU2NiAyNC4yMjQtMTQuMDI0IDcwLjA1NSAyLjI0NCAxMTguMTQgNDQuOTQgMzYuMzU2IDMyLjI4IDczLjY4OCA4MC44MzcgMTA1LjcyMyAxMzYuMTczIDMyLjg0NCA1Ni43MzMgNTcuNDYgMTE0LjIxIDY3LjAzNiAxNjIuNTgyIDEyLjExNyA2MS4yMTMgMi4zMSAxMDcuOTg0LTIxLjQ1MyAxMjEuNzQtMjMuMDU3IDEzLjM0OC02NS4yNS0uNzg0LTExMC4yNC0zOS41LTM4LjAxMy0zMi43MS03OC42ODItODMuMjUzLTExMi43Ni0xNDIuMTE1eiIvPjwvZz48L2c+PHBhdGggZmlsbD0iIzAwZDhmZiIgZD0iTTY0LjYyIDM4Ljg0OGwtNC4yNi02LjQzNmMyLjE1My0uMTkgNC4wOTMtMS43NSA0LjA5My00LjYgMC0yLjktMi4wNTgtNC43NTYtNC45NDUtNC43NTZoLTYuMzR2MTUuNzhoMS45NjR2LTYuMjdoMy4xNDdsNC4wMjIgNi4yN3ptLTUuMzQ3LTcuOTk3aC00LjE0di02LjAzM2g0LjE0YzEuODcgMCAzLjE0NyAxLjIzIDMuMTQ3IDMuMDA1cy0xLjI3OCAzLjAzLTMuMTQ3IDMuMDN6bTEyLjY1OCA4LjI4YzEuODcgMCAzLjQwNy0uNjE1IDQuNTQzLTEuNzVsLS44NTItMS4xNmMtLjkuOTIzLTIuMjI0IDEuNDQzLTMuNTI1IDEuNDQzLTIuNDYgMC0zLjk3NS0xLjc5OC00LjExNy0zLjk1aDkuMjV2LS40NWMwLTMuNDMtMi4wMzUtNi4xMjgtNS40OS02LjEyOC0zLjI2NSAwLTUuNjMgMi42NzQtNS42MyA1Ljk4NiAwIDMuNTczIDIuNDM3IDYgNS44MiA2em0zLjU1LTYuNzJoLTcuNWMuMDk1LTEuNzUgMS4zLTMuODEgMy43MzgtMy44MSAyLjYwMyAwIDMuNzM4IDIuMTA2IDMuNzYyIDMuODF6bTEzLjUzNCA2LjQzNnYtNy44NTVjMC0yLjc2OC0yLjAxLTMuODU3LTQuNDI0LTMuODU3LTEuODcgMC0zLjMzNi42MTUtNC41NjYgMS44OTNsLjgyOCAxLjIzYzEuMDE3LTEuMDg4IDIuMTMtMS41ODUgMy41MDItMS41ODUgMS42NTYgMCAyLjg4Ny44NzUgMi44ODcgMi40MTN2Mi4wNThjLS45MjMtMS4wNjUtMi4yMjQtMS41NjItMy43ODYtMS41NjItMS45NCAwLTQgMS4yMDctNCAzLjc2MiAwIDIuNDg0IDIuMDU4IDMuNzg2IDQgMy43ODYgMS41MzggMCAyLjg0LS41NDQgMy43ODYtMS41ODV2MS4zem0tNC45Mi0uOTk0Yy0xLjY1NiAwLTIuODE2LTEuMDQtMi44MTYtMi40ODQgMC0xLjQ2NyAxLjE2LTIuNTA4IDIuODE2LTIuNTA4IDEuMjU0IDAgMi40Ni40NzMgMy4xNDcgMS40MnYyLjE1M2MtLjY4Ni45NDYtMS44OTMgMS40Mi0zLjE0NyAxLjQyem0xMy41IDEuMjc4YzIuMDgyIDAgMy4zMTItLjg1MiA0LjE4OC0xLjk4N2wtMS4xODMtMS4wODhjLS43NTcgMS4wMTctMS43MjcgMS40OS0yLjkgMS40OS0yLjQzNyAwLTMuOTUtMS44OTMtMy45NS00LjQyNHMxLjUxNC00LjQgMy45NS00LjRjMS4xODMgMCAyLjE1My40NSAyLjkgMS40OWwxLjE4My0xLjA4OGMtLjg3NS0xLjEzNi0yLjEwNi0xLjk4Ny00LjE4OC0xLjk4Ny0zLjQwNyAwLTUuNzAyIDIuNjAzLTUuNzAyIDUuOTg2IDAgMy40MDcgMi4yOTUgNiA1LjcwMiA2em05LjU2IDBjMS4wNCAwIDEuNjgtLjMwOCAyLjEzLS43MzNsLS41Mi0xLjMyNWMtLjIzNy4yNi0uNy40NzMtMS4yMDcuNDczLS43OCAwLTEuMTYtLjYxNS0xLjE2LTEuNDY3di03LjA5OGgyLjMyVjI3LjQyaC0yLjMydi0zLjEyM2gtMS43NzV2My4xMjNoLTEuODkzdjEuNTYyaDEuODkzdjcuNDc3YzAgMS43MDQuODUyIDIuNjc0IDIuNTMyIDIuNjc0eiIvPjwvc3ZnPg==;imageBackground=none;" parent="1" vertex="1">
          <mxGeometry x="767" y="297.88" width="66.48" height="33.24" as="geometry" />
        </mxCell>
        <mxCell id="QVaytBZtxeJtx2ClRTGg-1784" value="" style="rounded=0;html=1;fillColor=#19ABEB;strokeColor=none;gradientColor=#0F688F;fontColor=#FFFFFF;fontStyle=1;" parent="1" vertex="1">
          <mxGeometry x="615" y="423" width="89" height="24" as="geometry" />
        </mxCell>
        <mxCell id="QVaytBZtxeJtx2ClRTGg-1787" value="" style="shape=image;verticalLabelPosition=bottom;labelBackgroundColor=default;verticalAlign=top;aspect=fixed;imageAspect=0;image=data:image/svg+xml,PHN2ZyB4bWxucz0iaHR0cDovL3d3dy53My5vcmcvMjAwMC9zdmciIGhlaWdodD0iNjAiIHdpZHRoPSIxMjAiIHZpZXdCb3g9IjAgMCAxMjAgNjAiPjxwYXRoIGZpbGw9IiM2OGJkNDUiIGQ9Ik0zOS4xNyAxMy4yNjVhMTcuMjQgMTcuMjQgMCAwIDEtMS45OTggMy41NDRjLTQuNzc4LTQuNzc2LTExLjc1NS02LjYxMy0xOC4yNjUtNC44UzcuMzU3IDE4Ljk2NiA1LjcxNyAyNS41MiA2LjA4NiAzOSAxMC45OCA0My42NmwuNjkzLjYxMmExOC43NSAxOC43NSAwIDAgMCAzMC43ODEtMTMuMDA1Yy41MS00Ljc3NS0uODktMTAuODE3LTMuMjg0LTE4ek0xMy42NDcgNDMuNzY3Yy0uNDA4LjUwNC0xLjA4LjcxMy0xLjcwMi41M3MtMS4wNzItLjcyNS0xLjE0LTEuMzcuMjYtMS4yNjcuODMtMS41NzcgMS4yNy0uMjQ0IDEuNzc0LjE2NGMuNjg3LjU1Ny43OTMgMS41NjYuMjM2IDIuMjU0em0yNS40NDQtNS42MTZjLTQuNjI4IDYuMTY1LTE0LjUxIDQuMDg2LTIwLjg0NyA0LjM4NCAwIDAtMS4xMjMuMDY2LTIuMjU0LjI1MiAwIDAgLjQyNi0uMTgyLjk3Mi0uMzg3IDQuNDUtMS41NSA2LjU1My0xLjg0NyA5LjI1Ni0zLjIzOCA1LjA5LTIuNTg3IDEwLjEyMy04LjI1MyAxMS4xNy0xNC4xNDMtMS45MzYgNS42NjYtNy44MTUgMTAuNTM4LTEzLjE2NyAxMi41MTctMy42NjggMS4zNTItMTAuMjk0IDIuNjY4LTEwLjI5NCAyLjY2OGwtLjI2Ny0uMTQzQzkuMTUgMzcuODcgOS4wMSAyOC4xMDYgMTcuMiAyNC45NTdjMy42LTEuMzgzIDcuMDI1LS42MjQgMTAuOTAyLTEuNTUgNC4xNC0uOTg0IDguOTMtNC4wODYgMTAuODgtOC4xMzMgMi4xOCA2LjQ3NSA0LjgwNiAxNi42LjA5NyAyMi44OHoiLz48ZyBmaWxsPSIjNjhiZDQ1IiB0cmFuc2Zvcm09Im1hdHJpeCguNTcwNDcgMCAwIC41NzA0NyAxMS4xOTc3MzEgMTYuMDU0NDg5KSI+PHBhdGggZD0iTTYxLjgwNyAzNS4xNTJhMi4xMSAyLjExIDAgMCAxLTEuMDE5LTEuOTA2IDIuMTk3IDIuMTk3IDAgMCAxIDIuMjI3LTIuMjIyIDIuNDAxIDIuNDAxIDAgMCAxIDEuMTc3LjMxNiAxMi42NTYgMTIuNjU2IDAgMCAwIDYuOTAyIDIuMzE0YzIuMzYgMCAzLjcyLTEuMDIgMy43Mi0yLjZ2LS4wODdjMC0xLjg2LTIuNTUtMi40OTgtNS4zNTctMy4zNi0zLjUzNy0xLjAyLTcuNDg4LTIuNDUyLTcuNDg4LTcuMDM0di0uMDkyYzAtNC41NDIgMy43NjctNy4zIDguNTMzLTcuM2ExNi41MDUgMTYuNTA1IDAgMCAxIDcuNDkzIDEuOTU3IDIuMzM1IDIuMzM1IDAgMCAxIDEuMzE1IDIuMDkgMi4yMTIgMi4yMTIgMCAwIDEtMi4yNjggMi4yMjcgMi4xMzEgMi4xMzEgMCAwIDEtMS4wODYtLjI3NWMtMS45NTItMS4wMi0zLjk1LTEuNjM2LTUuNjA3LTEuNjM2LTIuMTMgMC0zLjM2IDEuMDItMy4zNiAyLjM2di4wOTJjMCAxLjc3IDIuNiAyLjQ5OCA1LjQwMyAzLjQwNSAzLjQ5NyAxLjEgNy40NDIgMi42NzYgNy40NDIgNi45ODh2LjA5MmMwIDUuMDM2LTMuOTA0IDcuNTMtOC44OTUgNy41M2ExNi4zNzcgMTYuMzc3IDAgMCAxLTkuMTM0LTIuODZ6bTIwLjEtMTkuMTk2YTIuNzEyIDIuNzEyIDAgMCAxIDIuNzE3LTIuNzY4IDIuNzUyIDIuNzUyIDAgMCAxIDIuNzY4IDIuNzY4djEuNjYyYzEuNzctMi40OTggNC4yNjYtNC40OTYgOC4xNTUtNC40OTYgNS42MDcgMCAxMS4xMTcgNC40NDUgMTEuMTE3IDEyLjQzN3YuMDkyYzAgNy45NC01LjQ1IDEyLjQzMi0xMS4xMTcgMTIuNDMyLTQgMC02LjUtMS45OTgtOC4xNTUtNC4yMnY4LjQ2YTIuNzQ3IDIuNzQ3IDAgMCAxLTUuNDk1IDB6bTE5LjIgOS42ODV2LS4wOTJjMC00LjYyOC0zLjEzNS03LjY0Ni02Ljg1Ni03LjY0NnMtNi45ODggMy4xLTYuOTg4IDcuNjQ2di4wOTJjMCA0LjU4NyAzLjI2NyA3LjY0NiA2Ljk4OCA3LjY0NnM2Ljg1Ni0yLjkyNiA2Ljg1Ni03LjY2em03LjY2LTkuNjhhMi43MTIgMi43MTIgMCAwIDEgMi43MjItMi43NjggMi43NDcgMi43NDcgMCAwIDEgMi43NjggMi43Njh2MS4zMmMuMjc1LTIuMDQgMy42MzQtNC4wNzggNi4wMzUtNC4wNzhhMi41NDkgMi41NDkgMCAwIDEgMi43MjIgMi43MjIgMi41NzkgMi41NzkgMCAwIDEtMi4xNzYgMi42MzVjLTMuOTA0LjY3OC02LjU4IDQuMDc4LTYuNTggOC44MjN2Ny45YTIuNzM3IDIuNzM3IDAgMCAxLTIuNzY4IDIuNzIyIDIuNzAyIDIuNzAyIDAgMCAxLTIuNzIyLTIuNzIyem0xNi4zMjYuMDEyYTIuNzE3IDIuNzE3IDAgMCAxIDIuNzIyLTIuNzY4IDIuNzUyIDIuNzUyIDAgMCAxIDIuNzY4IDIuNzY4VjM1LjNhMi43NDcgMi43NDcgMCAwIDEtNS40OSAwem04LjI2My4wMWEyLjcxMiAyLjcxMiAwIDAgMSAyLjcyMi0yLjc2OCAyLjc1MiAyLjc1MiAwIDAgMSAyLjc2OCAyLjc2OHYxLjEyNmE4LjQ5MiA4LjQ5MiAwIDAgMSA3LjQ4OC0zLjkwNGM1LjM5OCAwIDguNTMzIDMuNjMgOC41MzMgOS4xNzV2MTIuOTA2YTIuNjc2IDIuNjc2IDAgMCAxLTIuNzIyIDIuNzIyIDIuNzE3IDIuNzE3IDAgMCAxLTIuNzg4LTIuNzIyVjI0LjA3YzAtMy43Mi0xLjg2LTUuODU3LTUuMTI4LTUuODU3LTMuMTc2IDAtNS4zOTggMi4yMjctNS4zOTggNS45NDh2MTEuMTIyYTIuNzQ3IDIuNzQ3IDAgMCAxLTUuNDkgMHptNDUuNjUtMi44NGEyLjc1MiAyLjc1MiAwIDAgMC0yLjc2OCAyLjc2OHYxLjYzYy0xLjc3LTIuNDk4LTQuMjY2LTQuNS04LjE1Ni00LjUtNS42MDcgMC0xMS4xMjIgNC40NDUtMTEuMTIyIDEyLjQzMnYuMDkyYy0uMDE1IDcuOTQ3IDUuNDM0IDEyLjQzMiAxMS4xMDcgMTIuNDMyIDMuOTcgMCA2LjQ2My0xLjk3MyA4LjE1NS00LjE4NS0uMjc1IDQuMzE3LTIuOTE2IDYuNTk2LTcuNTUgNi41OTZhMTQuNjcgMTQuNjcgMCAwIDEtNy4zNzEtMS45MDEgMi4xODcgMi4xODcgMCAwIDAtLjk5NC0uMjI0IDIuMzE5IDIuMzE5IDAgMCAwLTIuMzE5IDIuMjYzIDIuMjUzIDIuMjUzIDAgMCAwIDEuNTI5IDIuMTgyIDIwLjY3OSAyMC42NzkgMCAwIDAgOS4yNTYgMi4xMzZjNC4zMTIgMCA3LjY3LTEuMDIgOS44NTMtMy4yMiAxLjk5My0xLjk5OCAzLjA1OC01IDMuMDU4LTkuMDMyVjE1LjlhMi43MTcgMi43MTcgMCAwIDAtMi42ODEtMi43Njh6bS05LjYyMyAyMC4xMDhjLTMuNzY3IDAtNi44NS0yLjk1LTYuODUtNy42N3YtLjA5MmMwLTQuNjI4IDMuMTMtNy42NDYgNi44NS03LjY0NnM2Ljk4OCAzLjA2MyA2Ljk4OCA3LjY0NnYuMDkyYzAgNC41ODItMy4yNjIgNy42Ny02Ljk4OCA3LjY3eiIvPjxjaXJjbGUgY3g9IjEyNy44NDEiIGN5PSI2LjU4OCIgcj0iMi43NjgiLz48L2c+PC9zdmc+;strokeColor=none;" parent="1" vertex="1">
          <mxGeometry x="631.46" y="421" width="55" height="27.5" as="geometry" />
        </mxCell>
        <mxCell id="QVaytBZtxeJtx2ClRTGg-1790" value="" style="rounded=0;html=1;fillColor=#13BDC9;strokeColor=none;gradientColor=#0E8791;fontColor=#FFFFFF;fontStyle=1;gradientDirection=south;" parent="1" vertex="1">
          <mxGeometry x="470" y="299.5" width="89" height="24" as="geometry" />
        </mxCell>
        <mxCell id="QVaytBZtxeJtx2ClRTGg-1792" value="" style="shape=image;verticalLabelPosition=bottom;labelBackgroundColor=default;verticalAlign=top;aspect=fixed;imageAspect=0;image=data:image/svg+xml,PHN2ZyB4bWxucz0iaHR0cDovL3d3dy53My5vcmcvMjAwMC9zdmciIGhlaWdodD0iNjAiIHdpZHRoPSIxMjAiIHZpZXdCb3g9IjAgMCAxMjAgNjAiPjxwYXRoIGZpbGw9IiM2OGJkNDUiIGQ9Ik0zOS4xNyAxMy4yNjVhMTcuMjQgMTcuMjQgMCAwIDEtMS45OTggMy41NDRjLTQuNzc4LTQuNzc2LTExLjc1NS02LjYxMy0xOC4yNjUtNC44UzcuMzU3IDE4Ljk2NiA1LjcxNyAyNS41MiA2LjA4NiAzOSAxMC45OCA0My42NmwuNjkzLjYxMmExOC43NSAxOC43NSAwIDAgMCAzMC43ODEtMTMuMDA1Yy41MS00Ljc3NS0uODktMTAuODE3LTMuMjg0LTE4ek0xMy42NDcgNDMuNzY3Yy0uNDA4LjUwNC0xLjA4LjcxMy0xLjcwMi41M3MtMS4wNzItLjcyNS0xLjE0LTEuMzcuMjYtMS4yNjcuODMtMS41NzcgMS4yNy0uMjQ0IDEuNzc0LjE2NGMuNjg3LjU1Ny43OTMgMS41NjYuMjM2IDIuMjU0em0yNS40NDQtNS42MTZjLTQuNjI4IDYuMTY1LTE0LjUxIDQuMDg2LTIwLjg0NyA0LjM4NCAwIDAtMS4xMjMuMDY2LTIuMjU0LjI1MiAwIDAgLjQyNi0uMTgyLjk3Mi0uMzg3IDQuNDUtMS41NSA2LjU1My0xLjg0NyA5LjI1Ni0zLjIzOCA1LjA5LTIuNTg3IDEwLjEyMy04LjI1MyAxMS4xNy0xNC4xNDMtMS45MzYgNS42NjYtNy44MTUgMTAuNTM4LTEzLjE2NyAxMi41MTctMy42NjggMS4zNTItMTAuMjk0IDIuNjY4LTEwLjI5NCAyLjY2OGwtLjI2Ny0uMTQzQzkuMTUgMzcuODcgOS4wMSAyOC4xMDYgMTcuMiAyNC45NTdjMy42LTEuMzgzIDcuMDI1LS42MjQgMTAuOTAyLTEuNTUgNC4xNC0uOTg0IDguOTMtNC4wODYgMTAuODgtOC4xMzMgMi4xOCA2LjQ3NSA0LjgwNiAxNi42LjA5NyAyMi44OHoiLz48ZyBmaWxsPSIjNjhiZDQ1IiB0cmFuc2Zvcm09Im1hdHJpeCguNTcwNDcgMCAwIC41NzA0NyAxMS4xOTc3MzEgMTYuMDU0NDg5KSI+PHBhdGggZD0iTTYxLjgwNyAzNS4xNTJhMi4xMSAyLjExIDAgMCAxLTEuMDE5LTEuOTA2IDIuMTk3IDIuMTk3IDAgMCAxIDIuMjI3LTIuMjIyIDIuNDAxIDIuNDAxIDAgMCAxIDEuMTc3LjMxNiAxMi42NTYgMTIuNjU2IDAgMCAwIDYuOTAyIDIuMzE0YzIuMzYgMCAzLjcyLTEuMDIgMy43Mi0yLjZ2LS4wODdjMC0xLjg2LTIuNTUtMi40OTgtNS4zNTctMy4zNi0zLjUzNy0xLjAyLTcuNDg4LTIuNDUyLTcuNDg4LTcuMDM0di0uMDkyYzAtNC41NDIgMy43NjctNy4zIDguNTMzLTcuM2ExNi41MDUgMTYuNTA1IDAgMCAxIDcuNDkzIDEuOTU3IDIuMzM1IDIuMzM1IDAgMCAxIDEuMzE1IDIuMDkgMi4yMTIgMi4yMTIgMCAwIDEtMi4yNjggMi4yMjcgMi4xMzEgMi4xMzEgMCAwIDEtMS4wODYtLjI3NWMtMS45NTItMS4wMi0zLjk1LTEuNjM2LTUuNjA3LTEuNjM2LTIuMTMgMC0zLjM2IDEuMDItMy4zNiAyLjM2di4wOTJjMCAxLjc3IDIuNiAyLjQ5OCA1LjQwMyAzLjQwNSAzLjQ5NyAxLjEgNy40NDIgMi42NzYgNy40NDIgNi45ODh2LjA5MmMwIDUuMDM2LTMuOTA0IDcuNTMtOC44OTUgNy41M2ExNi4zNzcgMTYuMzc3IDAgMCAxLTkuMTM0LTIuODZ6bTIwLjEtMTkuMTk2YTIuNzEyIDIuNzEyIDAgMCAxIDIuNzE3LTIuNzY4IDIuNzUyIDIuNzUyIDAgMCAxIDIuNzY4IDIuNzY4djEuNjYyYzEuNzctMi40OTggNC4yNjYtNC40OTYgOC4xNTUtNC40OTYgNS42MDcgMCAxMS4xMTcgNC40NDUgMTEuMTE3IDEyLjQzN3YuMDkyYzAgNy45NC01LjQ1IDEyLjQzMi0xMS4xMTcgMTIuNDMyLTQgMC02LjUtMS45OTgtOC4xNTUtNC4yMnY4LjQ2YTIuNzQ3IDIuNzQ3IDAgMCAxLTUuNDk1IDB6bTE5LjIgOS42ODV2LS4wOTJjMC00LjYyOC0zLjEzNS03LjY0Ni02Ljg1Ni03LjY0NnMtNi45ODggMy4xLTYuOTg4IDcuNjQ2di4wOTJjMCA0LjU4NyAzLjI2NyA3LjY0NiA2Ljk4OCA3LjY0NnM2Ljg1Ni0yLjkyNiA2Ljg1Ni03LjY2em03LjY2LTkuNjhhMi43MTIgMi43MTIgMCAwIDEgMi43MjItMi43NjggMi43NDcgMi43NDcgMCAwIDEgMi43NjggMi43Njh2MS4zMmMuMjc1LTIuMDQgMy42MzQtNC4wNzggNi4wMzUtNC4wNzhhMi41NDkgMi41NDkgMCAwIDEgMi43MjIgMi43MjIgMi41NzkgMi41NzkgMCAwIDEtMi4xNzYgMi42MzVjLTMuOTA0LjY3OC02LjU4IDQuMDc4LTYuNTggOC44MjN2Ny45YTIuNzM3IDIuNzM3IDAgMCAxLTIuNzY4IDIuNzIyIDIuNzAyIDIuNzAyIDAgMCAxLTIuNzIyLTIuNzIyem0xNi4zMjYuMDEyYTIuNzE3IDIuNzE3IDAgMCAxIDIuNzIyLTIuNzY4IDIuNzUyIDIuNzUyIDAgMCAxIDIuNzY4IDIuNzY4VjM1LjNhMi43NDcgMi43NDcgMCAwIDEtNS40OSAwem04LjI2My4wMWEyLjcxMiAyLjcxMiAwIDAgMSAyLjcyMi0yLjc2OCAyLjc1MiAyLjc1MiAwIDAgMSAyLjc2OCAyLjc2OHYxLjEyNmE4LjQ5MiA4LjQ5MiAwIDAgMSA3LjQ4OC0zLjkwNGM1LjM5OCAwIDguNTMzIDMuNjMgOC41MzMgOS4xNzV2MTIuOTA2YTIuNjc2IDIuNjc2IDAgMCAxLTIuNzIyIDIuNzIyIDIuNzE3IDIuNzE3IDAgMCAxLTIuNzg4LTIuNzIyVjI0LjA3YzAtMy43Mi0xLjg2LTUuODU3LTUuMTI4LTUuODU3LTMuMTc2IDAtNS4zOTggMi4yMjctNS4zOTggNS45NDh2MTEuMTIyYTIuNzQ3IDIuNzQ3IDAgMCAxLTUuNDkgMHptNDUuNjUtMi44NGEyLjc1MiAyLjc1MiAwIDAgMC0yLjc2OCAyLjc2OHYxLjYzYy0xLjc3LTIuNDk4LTQuMjY2LTQuNS04LjE1Ni00LjUtNS42MDcgMC0xMS4xMjIgNC40NDUtMTEuMTIyIDEyLjQzMnYuMDkyYy0uMDE1IDcuOTQ3IDUuNDM0IDEyLjQzMiAxMS4xMDcgMTIuNDMyIDMuOTcgMCA2LjQ2My0xLjk3MyA4LjE1NS00LjE4NS0uMjc1IDQuMzE3LTIuOTE2IDYuNTk2LTcuNTUgNi41OTZhMTQuNjcgMTQuNjcgMCAwIDEtNy4zNzEtMS45MDEgMi4xODcgMi4xODcgMCAwIDAtLjk5NC0uMjI0IDIuMzE5IDIuMzE5IDAgMCAwLTIuMzE5IDIuMjYzIDIuMjUzIDIuMjUzIDAgMCAwIDEuNTI5IDIuMTgyIDIwLjY3OSAyMC42NzkgMCAwIDAgOS4yNTYgMi4xMzZjNC4zMTIgMCA3LjY3LTEuMDIgOS44NTMtMy4yMiAxLjk5My0xLjk5OCAzLjA1OC01IDMuMDU4LTkuMDMyVjE1LjlhMi43MTcgMi43MTcgMCAwIDAtMi42ODEtMi43Njh6bS05LjYyMyAyMC4xMDhjLTMuNzY3IDAtNi44NS0yLjk1LTYuODUtNy42N3YtLjA5MmMwLTQuNjI4IDMuMTMtNy42NDYgNi44NS03LjY0NnM2Ljk4OCAzLjA2MyA2Ljk4OCA3LjY0NnYuMDkyYzAgNC41ODItMy4yNjIgNy42Ny02Ljk4OCA3LjY3eiIvPjxjaXJjbGUgY3g9IjEyNy44NDEiIGN5PSI2LjU4OCIgcj0iMi43NjgiLz48L2c+PC9zdmc+;strokeColor=none;" parent="1" vertex="1">
          <mxGeometry x="487" y="297.5" width="55" height="27.5" as="geometry" />
        </mxCell>
        <mxCell id="IxkG1SX1AzPA6yxE2jkf-1774" style="edgeStyle=none;rounded=0;jumpStyle=none;orthogonalLoop=1;jettySize=auto;html=1;shadow=0;strokeColor=#2F5B7C;strokeWidth=2;align=center;verticalAlign=middle;spacing=5;fontFamily=Helvetica;fontSize=16;fontColor=#23445D;labelBackgroundColor=none;startArrow=none;startFill=0;endArrow=none;endFill=0;" edge="1" parent="1" target="IxkG1SX1AzPA6yxE2jkf-1775" source="P-ZrlMQtJNmtfWvuK3_7-1778">
          <mxGeometry relative="1" as="geometry">
            <mxPoint x="903.84" y="570" as="targetPoint" />
            <mxPoint x="684" y="542" as="sourcePoint" />
          </mxGeometry>
        </mxCell>
        <mxCell id="IxkG1SX1AzPA6yxE2jkf-1775" value="&lt;p style=&quot;margin: 0px; margin-top: 4px; text-align: center; text-decoration: underline;&quot;&gt;&lt;b&gt;Product&lt;/b&gt;&lt;/p&gt;&lt;hr&gt;&lt;p style=&quot;margin: 0px; margin-left: 8px;&quot;&gt;Id &lt;span style=&quot;white-space: pre;&quot;&gt;&#x9;&lt;/span&gt;&lt;span style=&quot;white-space: pre;&quot;&gt;&#x9;&lt;span style=&quot;white-space: pre;&quot;&gt;&#x9;&lt;/span&gt;&lt;/span&gt;id&lt;/p&gt;&lt;p style=&quot;margin: 0px 0px 0px 8px;&quot;&gt;&lt;font color=&quot;#ff0000&quot;&gt;LiveSlug&lt;/font&gt;&amp;nbsp;&lt;span style=&quot;white-space-collapse: preserve;&quot;&gt;&#x9;&lt;/span&gt;&lt;span style=&quot;white-space-collapse: preserve;&quot;&gt;&#x9;&lt;/span&gt;string&lt;/p&gt;&lt;p style=&quot;margin: 0px; margin-left: 8px;&quot;&gt;Title&amp;nbsp;&lt;span style=&quot;white-space: pre;&quot;&gt;&#x9;&lt;span style=&quot;white-space: pre;&quot;&gt;&#x9;&lt;/span&gt;&lt;/span&gt;string&lt;/p&gt;&lt;p style=&quot;margin: 0px; margin-left: 8px;&quot;&gt;Price&amp;nbsp;&lt;span style=&quot;white-space-collapse: preserve;&quot;&gt;&#x9;&lt;/span&gt;&lt;span style=&quot;white-space-collapse: preserve;&quot;&gt;&#x9;&lt;/span&gt;double&lt;/p&gt;&lt;p style=&quot;margin: 0px; margin-left: 8px;&quot;&gt;&lt;span style=&quot;background-color: initial;&quot;&gt;Quantity&lt;span style=&quot;white-space-collapse: preserve;&quot;&gt;&#x9;&lt;/span&gt;&lt;/span&gt;&lt;span style=&quot;background-color: initial; white-space-collapse: preserve;&quot;&gt;&#x9;&lt;/span&gt;&lt;span style=&quot;background-color: initial;&quot;&gt;int&lt;/span&gt;&lt;br&gt;&lt;/p&gt;&lt;p style=&quot;margin: 0px 0px 0px 8px;&quot;&gt;TimeLeft&lt;span style=&quot;white-space: pre;&quot;&gt;&#x9;&lt;/span&gt;&lt;span style=&quot;white-space: pre;&quot;&gt;&#x9;&lt;/span&gt;minutes&lt;/p&gt;&lt;p style=&quot;margin: 0px 0px 0px 8px;&quot;&gt;ImageUrl&amp;nbsp;&lt;span style=&quot;white-space-collapse: preserve;&quot;&gt;&#x9;&lt;/span&gt;string&lt;/p&gt;&lt;p style=&quot;margin: 0px; margin-left: 8px;&quot;&gt;&lt;span style=&quot;background-color: initial;&quot;&gt;CreatedAt &lt;/span&gt;&lt;span style=&quot;background-color: initial; white-space-collapse: preserve;&quot;&gt;&#x9;&lt;/span&gt;javaTimestamp&lt;br&gt;&lt;/p&gt;" style="verticalAlign=top;align=left;overflow=fill;fontSize=12;fontFamily=Helvetica;html=1;strokeColor=#003366;shadow=1;fillColor=#D4E1F5;fontColor=#003366" vertex="1" parent="1">
          <mxGeometry x="734" y="480" width="144" height="153" as="geometry" />
        </mxCell>
        <mxCell id="IxkG1SX1AzPA6yxE2jkf-1776" value="&lt;p style=&quot;margin: 4px 0px 0px; text-align: center;&quot;&gt;&lt;b&gt;&lt;u&gt;LiveStatement&lt;/u&gt;&lt;/b&gt;&lt;br&gt;&lt;/p&gt;&lt;hr&gt;&lt;p style=&quot;margin: 0px; margin-left: 8px;&quot;&gt;Id&lt;span style=&quot;white-space: pre;&quot;&gt;&#x9;&lt;/span&gt;&lt;span style=&quot;white-space: pre;&quot;&gt;&#x9;&lt;/span&gt;&amp;nbsp; &amp;nbsp; &amp;nbsp;id&lt;/p&gt;&lt;p style=&quot;margin: 0px 0px 0px 8px;&quot;&gt;&lt;font color=&quot;#ff0000&quot;&gt;LiveSlug&lt;/font&gt;&amp;nbsp;&lt;span style=&quot;white-space-collapse: preserve;&quot;&gt;&#x9;&lt;/span&gt;&amp;nbsp; &amp;nbsp; &amp;nbsp;string&lt;/p&gt;&lt;p style=&quot;margin: 0px; margin-left: 8px;&quot;&gt;Total&lt;span style=&quot;background-color: initial; white-space-collapse: preserve;&quot;&gt;&#x9;&lt;/span&gt;&lt;span style=&quot;white-space-collapse: preserve;&quot;&gt;&amp;nbsp;    d&lt;/span&gt;ouble&lt;/p&gt;" style="verticalAlign=top;align=left;overflow=fill;fontSize=12;fontFamily=Helvetica;html=1;strokeColor=#003366;shadow=1;fillColor=#D4E1F5;fontColor=#003366" vertex="1" parent="1">
          <mxGeometry x="597.4399999999999" y="600" width="123.05" height="80" as="geometry" />
        </mxCell>
        <mxCell id="IxkG1SX1AzPA6yxE2jkf-1777" style="edgeStyle=none;rounded=0;jumpStyle=none;orthogonalLoop=1;jettySize=auto;html=1;shadow=0;strokeColor=#2F5B7C;strokeWidth=2;align=center;verticalAlign=middle;spacing=5;fontFamily=Helvetica;fontSize=16;fontColor=#23445D;labelBackgroundColor=none;startArrow=none;startFill=0;endArrow=none;endFill=0;" edge="1" parent="1" source="IxkG1SX1AzPA6yxE2jkf-1778" target="P-ZrlMQtJNmtfWvuK3_7-1778">
          <mxGeometry relative="1" as="geometry">
            <mxPoint x="639" y="541" as="targetPoint" />
          </mxGeometry>
        </mxCell>
        <mxCell id="IxkG1SX1AzPA6yxE2jkf-1778" value="&lt;p style=&quot;margin: 0px; margin-top: 4px; text-align: center; text-decoration: underline;&quot;&gt;&lt;b&gt;Transaction&lt;/b&gt;&lt;/p&gt;&lt;hr&gt;&lt;p style=&quot;margin: 0px; margin-left: 8px;&quot;&gt;Id &lt;span style=&quot;white-space: pre;&quot;&gt;&#x9;&lt;/span&gt;&lt;span style=&quot;white-space: pre;&quot;&gt;&#x9;&lt;/span&gt;&lt;span style=&quot;white-space: pre;&quot;&gt;&#x9;&lt;/span&gt;id&lt;/p&gt;&lt;p style=&quot;margin: 0px; margin-left: 8px;&quot;&gt;uuid&lt;span style=&quot;white-space: pre;&quot;&gt;&#x9;&lt;/span&gt;&lt;span style=&quot;white-space: pre;&quot;&gt;&#x9;&lt;/span&gt;&lt;span style=&quot;white-space: pre;&quot;&gt;&#x9;&lt;/span&gt;uuid&lt;/p&gt;&lt;p style=&quot;margin: 0px 0px 0px 8px;&quot;&gt;&lt;font color=&quot;#ff0000&quot;&gt;LiveSlug&lt;/font&gt;&amp;nbsp;&lt;span style=&quot;white-space-collapse: preserve;&quot;&gt;&#x9;&lt;/span&gt;&lt;span style=&quot;white-space-collapse: preserve;&quot;&gt;&#x9;&lt;/span&gt;string&lt;/p&gt;&lt;p style=&quot;margin: 0px 0px 0px 8px;&quot;&gt;ProductId&lt;span style=&quot;white-space-collapse: preserve;&quot;&gt;&#x9;&lt;/span&gt;&lt;span style=&quot;white-space-collapse: preserve;&quot;&gt;&#x9;&lt;/span&gt;productId&lt;br&gt;&lt;/p&gt;&lt;p style=&quot;margin: 0px; margin-left: 8px;&quot;&gt;Amount &lt;span style=&quot;white-space: pre;&quot;&gt;&#x9;&lt;/span&gt;&lt;span style=&quot;white-space: pre;&quot;&gt;&#x9;&lt;/span&gt;double&lt;/p&gt;&lt;p style=&quot;margin: 0px; margin-left: 8px;&quot;&gt;&lt;span style=&quot;background-color: initial;&quot;&gt;CreditcardNº&lt;/span&gt;&lt;span style=&quot;background-color: initial; white-space-collapse: preserve;&quot;&gt;&#x9;&lt;/span&gt;&lt;span style=&quot;background-color: initial;&quot;&gt;creditcard&lt;/span&gt;&lt;/p&gt;&lt;p style=&quot;margin: 0px; margin-left: 8px;&quot;&gt;&lt;span style=&quot;background-color: initial;&quot;&gt;CreatedAt&lt;/span&gt;&lt;span style=&quot;background-color: initial; white-space-collapse: preserve;&quot;&gt;&#x9;&lt;/span&gt;&lt;span style=&quot;background-color: initial;&quot;&gt;string&lt;/span&gt;&lt;/p&gt;" style="verticalAlign=top;align=left;overflow=fill;fontSize=12;fontFamily=Helvetica;html=1;strokeColor=#003366;shadow=1;fillColor=#D4E1F5;fontColor=#003366" vertex="1" parent="1">
          <mxGeometry x="437.99999999999994" y="480" width="146.74" height="140" as="geometry" />
        </mxCell>
        <mxCell id="IxkG1SX1AzPA6yxE2jkf-1779" style="edgeStyle=none;rounded=0;jumpStyle=none;orthogonalLoop=1;jettySize=auto;html=1;shadow=0;strokeColor=#2F5B7C;strokeWidth=2;align=center;verticalAlign=middle;spacing=5;fontFamily=Helvetica;fontSize=16;fontColor=#23445D;labelBackgroundColor=none;startArrow=none;startFill=0;endArrow=none;endFill=0;" edge="1" parent="1" target="IxkG1SX1AzPA6yxE2jkf-1776" source="P-ZrlMQtJNmtfWvuK3_7-1778">
          <mxGeometry relative="1" as="geometry">
            <mxPoint x="662" y="570" as="sourcePoint" />
          </mxGeometry>
        </mxCell>
        <mxCell id="P-ZrlMQtJNmtfWvuK3_7-1778" value="SQL" style="image;aspect=fixed;html=1;points=[];align=center;fontSize=12;image=img/lib/azure2/databases/Azure_Database_PostgreSQL_Server.svg;" parent="1" vertex="1">
          <mxGeometry x="637.4700000000001" y="497" width="45" height="60" as="geometry" />
        </mxCell>
        <mxCell id="IxkG1SX1AzPA6yxE2jkf-1780" value="&lt;p style=&quot;margin: 4px 0px 0px; text-align: center;&quot;&gt;&lt;span style=&quot;background-color: initial; text-align: left;&quot;&gt;&lt;b&gt;&lt;u&gt;ChatMessage&lt;/u&gt;&lt;/b&gt;&lt;/span&gt;&lt;/p&gt;&lt;hr&gt;&lt;p style=&quot;margin: 0px; margin-left: 8px;&quot;&gt;Id&lt;span style=&quot;white-space: pre;&quot;&gt;&#x9;&lt;/span&gt;&lt;span style=&quot;white-space: pre;&quot;&gt;&#x9;&lt;/span&gt;&lt;span style=&quot;white-space: pre;&quot;&gt;&#x9;&lt;/span&gt;uuid&lt;/p&gt;&lt;p style=&quot;margin: 0px 0px 0px 8px;&quot;&gt;&lt;font color=&quot;#ff0000&quot;&gt;LiveSlug&lt;/font&gt;&lt;span style=&quot;white-space-collapse: preserve;&quot;&gt;&#x9;&lt;/span&gt;&lt;span style=&quot;white-space-collapse: preserve;&quot;&gt;&#x9;&lt;/span&gt;string&lt;/p&gt;&lt;p style=&quot;margin: 0px; margin-left: 8px;&quot;&gt;Message&lt;span style=&quot;white-space: pre;&quot;&gt;&#x9;&lt;/span&gt;&lt;span style=&quot;white-space: pre;&quot;&gt;&#x9;&lt;/span&gt;string&lt;/p&gt;&lt;p style=&quot;margin: 0px; margin-left: 8px;&quot;&gt;Username&lt;span style=&quot;white-space: pre;&quot;&gt;&#x9;&lt;/span&gt;string&lt;/p&gt;&lt;p style=&quot;margin: 0px; margin-left: 8px;&quot;&gt;Email&lt;span style=&quot;white-space: pre;&quot;&gt;&#x9;&lt;/span&gt;&lt;span style=&quot;white-space: pre;&quot;&gt;&#x9;&lt;/span&gt;time&lt;/p&gt;&lt;p style=&quot;margin: 0px; margin-left: 8px;&quot;&gt;&lt;span style=&quot;background-color: initial;&quot;&gt;isBroadcaster&lt;/span&gt;&lt;span style=&quot;background-color: initial; white-space-collapse: preserve;&quot;&gt;&#x9;&lt;/span&gt;&lt;span style=&quot;background-color: initial;&quot;&gt;boolean&lt;/span&gt;&lt;br&gt;&lt;/p&gt;&lt;p style=&quot;margin: 0px; margin-left: 8px;&quot;&gt;CreatedAt&lt;span style=&quot;white-space: pre;&quot;&gt;&#x9;&lt;/span&gt;time&lt;/p&gt;" style="verticalAlign=top;align=left;overflow=fill;fontSize=12;fontFamily=Helvetica;html=1;strokeColor=#003366;shadow=1;fillColor=#D4E1F5;fontColor=#003366" vertex="1" parent="1">
          <mxGeometry x="204.00000000000003" y="260" width="136" height="140" as="geometry" />
        </mxCell>
        <mxCell id="IxkG1SX1AzPA6yxE2jkf-1781" style="rounded=1;orthogonalLoop=1;jettySize=auto;html=1;shadow=0;strokeColor=#12AAB5;strokeWidth=2;align=center;verticalAlign=middle;spacing=5;fontFamily=Helvetica;fontSize=14;fontColor=#00CCCC;fontStyle=0;labelBackgroundColor=default;jumpStyle=none;startArrow=none;startFill=0;endArrow=none;endFill=0;fillColor=#b0e3e6;" edge="1" parent="1" source="IxkG1SX1AzPA6yxE2jkf-1780" target="23laHXP0hFA1MJsgL0bc-1771">
          <mxGeometry relative="1" as="geometry">
            <mxPoint x="358.47" y="347.5" as="targetPoint" />
            <mxPoint x="334.47" y="347.483291593466" as="sourcePoint" />
          </mxGeometry>
        </mxCell>
        <mxCell id="IxkG1SX1AzPA6yxE2jkf-1782" value="" style="edgeStyle=none;rounded=0;jumpStyle=none;html=1;shadow=0;labelBackgroundColor=none;startArrow=none;startFill=0;endArrow=none;endFill=0;jettySize=auto;orthogonalLoop=1;strokeColor=#F08705;strokeWidth=2;fontFamily=Helvetica;fontSize=14;fontColor=#FFFFFF;spacing=5;" edge="1" parent="1" target="IxkG1SX1AzPA6yxE2jkf-1783" source="TplWDzTFWg6EL4Z_GAxd-1771">
          <mxGeometry relative="1" as="geometry">
            <mxPoint x="561.1959999999999" y="123.94799999999998" as="targetPoint" />
            <mxPoint x="430.92" y="180" as="sourcePoint" />
          </mxGeometry>
        </mxCell>
        <mxCell id="IxkG1SX1AzPA6yxE2jkf-1783" value="&lt;p style=&quot;margin: 0px; margin-top: 4px; text-align: center; text-decoration: underline;&quot;&gt;&lt;b&gt;Live&lt;/b&gt;&lt;/p&gt;&lt;hr&gt;&lt;p style=&quot;margin: 0px; margin-left: 8px;&quot;&gt;Id&lt;span style=&quot;white-space: pre;&quot;&gt;&#x9;&lt;/span&gt;&lt;span style=&quot;white-space: pre;&quot;&gt;&#x9;&lt;/span&gt;&lt;span style=&quot;white-space: pre;&quot;&gt;&#x9;&lt;/span&gt;int&lt;/p&gt;&lt;p style=&quot;margin: 0px 0px 0px 8px;&quot;&gt;&lt;font color=&quot;#ff0000&quot;&gt;Slug&lt;/font&gt;&lt;span style=&quot;white-space-collapse: preserve;&quot;&gt;&#x9;&lt;/span&gt;&lt;span style=&quot;white-space-collapse: preserve;&quot;&gt;&#x9;&lt;/span&gt;&lt;span style=&quot;white-space-collapse: preserve;&quot;&gt;&#x9;&lt;/span&gt;string&lt;/p&gt;&lt;p style=&quot;margin: 0px; margin-left: 8px;&quot;&gt;Title&lt;span style=&quot;white-space: pre;&quot;&gt;&#x9;&lt;/span&gt;&lt;span style=&quot;white-space: pre;&quot;&gt;&#x9;&lt;/span&gt;&lt;span style=&quot;white-space: pre;&quot;&gt;&#x9;&lt;/span&gt;string&lt;/p&gt;&lt;p style=&quot;margin: 0px; margin-left: 8px;&quot;&gt;Description&lt;span style=&quot;white-space: pre;&quot;&gt;&#x9;&lt;/span&gt;string&lt;/p&gt;&lt;p style=&quot;margin: 0px; margin-left: 8px;&quot;&gt;&lt;span style=&quot;background-color: initial;&quot;&gt;Password&lt;/span&gt;&lt;span style=&quot;background-color: initial; white-space-collapse: preserve;&quot;&gt;&#x9;&lt;/span&gt;&lt;span style=&quot;background-color: initial;&quot;&gt;encrypted&lt;/span&gt;&lt;br&gt;&lt;/p&gt;&lt;p style=&quot;margin: 0px; margin-left: 8px;&quot;&gt;&lt;span style=&quot;background-color: initial;&quot;&gt;Status&lt;/span&gt;&lt;span style=&quot;background-color: initial; white-space-collapse: preserve;&quot;&gt;&#x9;&lt;/span&gt;&lt;span style=&quot;background-color: initial; white-space-collapse: preserve;&quot;&gt;&#x9;&lt;/span&gt;&lt;span style=&quot;background-color: initial;&quot;&gt;liveStatus&lt;/span&gt;&lt;br&gt;&lt;/p&gt;&lt;p style=&quot;margin: 0px; margin-left: 8px;&quot;&gt;CreatedAt&lt;span style=&quot;white-space: pre;&quot;&gt;&#x9;&lt;/span&gt;time&lt;/p&gt;" style="verticalAlign=top;align=left;overflow=fill;fontSize=12;fontFamily=Helvetica;html=1;strokeColor=#003366;shadow=1;fillColor=#D4E1F5;fontColor=#003366" vertex="1" parent="1">
          <mxGeometry x="274.36999999999995" y="72" width="147.25" height="140" as="geometry" />
        </mxCell>
        <mxCell id="IxkG1SX1AzPA6yxE2jkf-1784" style="edgeStyle=none;rounded=0;jumpStyle=none;orthogonalLoop=1;jettySize=auto;html=1;shadow=0;strokeColor=#2F5B7C;strokeWidth=2;align=center;verticalAlign=middle;spacing=5;fontFamily=Helvetica;fontSize=16;fontColor=#23445D;labelBackgroundColor=none;startArrow=none;startFill=0;endArrow=none;endFill=0;" edge="1" parent="1" source="IxkG1SX1AzPA6yxE2jkf-1785" target="IxkG1SX1AzPA6yxE2jkf-1783">
          <mxGeometry relative="1" as="geometry" />
        </mxCell>
        <mxCell id="IxkG1SX1AzPA6yxE2jkf-1785" value="&lt;p style=&quot;margin: 0px; margin-top: 4px; text-align: center; text-decoration: underline;&quot;&gt;&lt;b&gt;LiveStatus&lt;/b&gt;&lt;/p&gt;&lt;hr&gt;&lt;p style=&quot;margin: 0px; margin-left: 8px;&quot;&gt;AVAILABLE&amp;nbsp; &amp;nbsp;string&lt;/p&gt;&lt;p style=&quot;margin: 0px; margin-left: 8px;&quot;&gt;DONE&lt;span style=&quot;white-space: pre;&quot;&gt;&#x9;&lt;/span&gt;&amp;nbsp; &amp;nbsp; &amp;nbsp; string&lt;/p&gt;" style="verticalAlign=top;align=left;overflow=fill;fontSize=12;fontFamily=Helvetica;html=1;strokeColor=#003366;shadow=1;fillColor=#D4E1F5;fontColor=#003366" vertex="1" parent="1">
          <mxGeometry x="440.37" y="36" width="118.63" height="75.5" as="geometry" />
        </mxCell>
      </root>
    </mxGraphModel>
  </diagram>
</mxfile>
